<?xml version="1.0" standalone="no"?>
<!DOCTYPE svg PUBLIC "-//W3C//DTD SVG 20010904//EN"
 "http://www.w3.org/TR/2001/REC-SVG-20010904/DTD/svg10.dtd">
<svg version="1.0" xmlns="http://www.w3.org/2000/svg"
 width="2550.000000pt" height="2550.000000pt" viewBox="0 0 2550.000000 2550.000000"
 preserveAspectRatio="xMidYMid meet">
<metadata>
Created by potrace 1.14, written by Peter Selinger 2001-2017
</metadata>
<g transform="translate(0.000000,2550.000000) scale(0.100000,-0.100000)"
fill="#000000" stroke="none">
<path d="M0 12750 l0 -12750 12750 0 12750 0 0 12750 0 12750 -12750 0 -12750
0 0 -12750z m15721 8273 c9 -32 14 -94 13 -188 -3 -231 -53 -425 -173 -670
-120 -243 -268 -444 -494 -668 -129 -129 -140 -138 -156 -123 -12 11 -20 13
-28 5 -8 -8 -17 -5 -33 8 -114 92 -250 219 -250 233 0 4 -9 11 -20 16 -11 5
-78 66 -149 137 -71 70 -136 127 -144 127 -9 0 -17 3 -19 8 -2 4 -15 18 -30
31 -39 34 -53 18 -23 -27 14 -20 25 -44 25 -53 0 -10 23 -44 50 -77 28 -33 50
-67 50 -75 0 -9 13 -25 28 -36 16 -11 37 -38 47 -60 10 -23 22 -41 27 -41 5 0
7 -4 3 -9 -3 -6 4 -8 15 -6 12 2 24 -3 30 -16 6 -10 7 -19 2 -19 -5 0 -9 -15
-9 -32 0 -18 -3 -42 -7 -54 -5 -14 -2 -27 9 -38 16 -16 16 -18 0 -30 -12 -8
-16 -21 -12 -34 3 -12 0 -25 -5 -29 -6 -3 -8 -1 -5 4 4 6 0 16 -8 23 -10 9
-15 9 -15 1 0 -6 5 -11 10 -11 6 0 9 -3 8 -7 -2 -5 1 -9 5 -10 14 -2 67 -56
67 -67 0 -6 7 -24 15 -39 11 -23 12 -32 2 -48 -13 -21 -27 -25 -27 -7 0 9 -3
9 -12 0 -7 -7 -25 -12 -41 -12 -18 0 -37 -9 -48 -22 -19 -21 -19 -22 6 -54 14
-18 25 -36 25 -41 -1 -22 -415 -236 -640 -331 -473 -199 -970 -327 -1510 -389
-210 -24 -807 -24 -1090 0 -201 18 -249 23 -780 82 -395 44 -631 65 -741 65
-81 0 -86 1 -99 25 -17 31 -25 31 -45 2 -14 -23 -23 -24 -153 -30 -606 -28
-1004 -255 -1140 -652 -54 -160 -68 -399 -33 -570 58 -281 245 -518 478 -605
106 -40 210 -47 355 -24 39 7 42 6 29 -9 -9 -11 -10 -17 -2 -17 6 0 11 -11 11
-25 0 -14 9 -30 20 -37 31 -20 25 -47 -15 -64 -41 -17 -65 -18 -65 -3 0 5 4 8
9 5 16 -10 41 5 41 25 0 26 -26 24 -55 -6 -32 -31 -78 -39 -174 -32 -376 29
-717 371 -826 830 -100 420 -31 843 218 1331 445 873 1348 1549 2452 1837 687
178 1400 220 2275 133 85 -8 277 -31 425 -49 523 -66 722 -86 913 -92 106 -3
187 -10 180 -14 -10 -6 -10 -11 -1 -20 8 -8 17 -8 33 1 16 8 19 14 11 20 -7 4
41 10 106 14 413 24 703 127 870 310 63 69 109 152 143 261 35 110 48 117 71
38z m493 -639 c10 -38 28 -92 41 -120 53 -117 269 -345 800 -849 182 -173 364
-353 406 -402 232 -269 469 -629 642 -974 76 -152 179 -390 172 -397 -2 -2
-18 3 -36 12 -39 20 -36 20 -42 -4 -3 -10 -2 -19 2 -18 3 0 20 0 36 -1 24 -1
27 -3 15 -11 -11 -8 -9 -9 10 -5 24 6 27 1 53 -66 36 -92 90 -290 118 -428 26
-131 39 -496 17 -489 -7 3 -13 13 -14 24 -1 40 -22 61 -61 63 -21 1 -51 3 -68
4 -54 5 -102 -46 -69 -74 8 -6 14 -8 14 -4 0 4 6 2 14 -4 10 -9 14 -28 11 -64
-2 -31 1 -55 8 -59 8 -5 8 -10 0 -20 -6 -7 -11 -17 -11 -23 0 -5 -5 -11 -11
-13 -6 -2 -11 2 -11 9 0 7 -3 9 -7 5 -9 -9 -13 -36 -5 -35 20 3 32 -3 32 -15
0 -7 8 -24 19 -37 10 -13 16 -29 14 -36 -2 -7 1 -22 7 -34 9 -16 9 -20 1 -14
-7 4 -18 1 -26 -5 -11 -9 -20 -6 -40 14 -29 30 -46 27 -38 -5 5 -19 3 -21 -19
-16 -24 6 -26 4 -30 -30 -6 -52 16 -93 50 -93 15 0 54 -13 87 -28 49 -22 59
-31 57 -48 -2 -12 -13 -27 -26 -34 -19 -10 -29 -9 -55 4 -17 9 -31 22 -31 29
0 7 -27 20 -59 29 -50 13 -59 13 -54 1 3 -7 14 -18 24 -24 11 -5 17 -14 14
-19 -3 -5 3 -15 15 -22 11 -7 20 -18 20 -25 0 -6 9 -14 19 -18 11 -3 26 -21
35 -40 9 -19 21 -37 26 -40 14 -8 13 -35 -1 -35 -6 0 -9 7 -5 15 3 9 0 15 -10
15 -8 0 -13 4 -10 9 3 5 -6 9 -19 9 -14 0 -25 -4 -25 -9 0 -5 -7 -9 -15 -9 -8
0 -15 -4 -15 -9 0 -5 7 -14 15 -21 8 -7 15 -19 15 -26 0 -8 11 -19 25 -24 l24
-9 -17 -48 c-29 -81 -174 -362 -247 -478 -112 -179 -308 -446 -396 -540 -11
-11 -42 -48 -71 -82 -28 -35 -59 -63 -69 -63 -11 0 -16 -5 -13 -13 3 -8 -1
-19 -9 -26 -12 -9 -19 -6 -38 14 -13 13 -29 25 -34 25 -18 0 -36 39 -29 64 4
17 -1 27 -19 39 -14 9 -28 13 -31 9 -4 -3 -18 -8 -31 -9 -14 -2 -34 -7 -45
-11 -20 -7 -20 -8 -2 -27 10 -11 42 -42 71 -69 30 -27 55 -60 57 -74 3 -15 9
-31 14 -37 10 -13 -112 -144 -300 -322 -206 -194 -394 -358 -810 -706 -151
-127 -300 -254 -330 -283 -30 -29 -68 -63 -84 -75 -50 -39 -184 -200 -215
-259 -17 -32 -31 -72 -31 -88 0 -83 -28 -97 -123 -62 -49 18 -54 24 -69 67 -9
27 -16 68 -17 93 -1 32 -7 49 -21 59 -11 7 -21 21 -21 30 -1 9 -4 3 -8 -13 -9
-42 -28 -44 -39 -4 -6 23 -14 33 -28 33 -10 0 -20 6 -20 13 -1 6 -2 17 -3 23
0 5 -7 7 -13 3 -7 -4 -4 2 6 14 25 28 34 28 34 -2 0 -28 19 -52 42 -51 25 0
23 40 -4 72 -14 17 -23 33 -19 37 3 3 -1 6 -10 6 -10 0 -25 -9 -35 -21 -9 -11
-25 -30 -35 -42 -18 -21 -18 -22 1 -37 11 -9 23 -26 26 -38 4 -12 12 -22 17
-22 6 0 7 -4 4 -10 -3 -5 -20 -10 -36 -10 -17 0 -28 -4 -24 -9 3 -5 1 -12 -5
-16 -21 -13 -272 197 -421 353 -52 53 -123 137 -159 185 l-65 87 -3 -631 c-1
-414 -6 -628 -12 -624 -6 3 -10 -5 -10 -19 0 -14 5 -26 10 -26 6 0 10 -5 10
-11 0 -7 -11 -8 -29 -4 -18 4 -38 1 -50 -7 -24 -15 -27 -28 -7 -28 8 0 17 -4
21 -9 3 -6 -10 -5 -31 0 -24 7 -39 7 -48 0 -23 -20 -25 1 -3 45 11 24 27 44
34 44 8 0 23 9 35 20 12 11 28 20 35 20 7 0 13 6 13 14 0 8 2 20 5 28 3 7 1
19 -4 27 -11 18 -60 -18 -97 -71 -15 -21 -34 -38 -43 -38 -16 0 -57 -57 -52
-73 1 -5 -4 -7 -10 -5 -7 2 -23 -6 -37 -19 -14 -13 -31 -23 -38 -23 -7 0 -16
-9 -19 -21 -5 -16 -13 -20 -31 -16 -21 4 -23 1 -18 -19 4 -17 2 -24 -8 -24 -7
0 -22 -16 -32 -35 -11 -19 -23 -35 -27 -35 -15 0 -22 -62 -8 -71 11 -7 10 -9
-3 -9 -10 0 -18 -5 -18 -10 0 -6 -11 -15 -25 -22 -13 -6 -22 -15 -19 -20 3 -5
-3 -12 -15 -15 -19 -5 -26 -15 -22 -36 1 -4 -15 -25 -34 -45 -19 -20 -40 -53
-45 -73 -6 -20 -23 -61 -40 -92 -29 -54 -29 -55 -9 -72 20 -19 18 -30 -8 -30
-26 0 -26 -21 2 -50 14 -16 25 -25 25 -21 0 4 4 5 10 1 6 -3 6 -15 0 -30 -10
-26 2 -42 36 -48 10 -1 25 -6 32 -10 7 -5 12 -4 12 2 0 24 28 9 33 -18 4 -18
14 -32 27 -36 11 -3 20 -11 20 -16 0 -5 18 -9 39 -7 22 1 38 5 35 9 -12 19 20
19 38 -1 19 -20 21 -20 33 -4 14 20 10 40 -11 48 -17 6 -7 36 12 36 8 0 14 5
14 11 0 6 9 9 20 6 17 -4 22 0 27 24 3 16 9 26 14 23 5 -3 9 2 9 10 0 9 5 16
11 16 6 0 7 -6 2 -12 -4 -7 5 -5 19 4 26 17 46 10 33 -12 -4 -6 5 -10 20 -10
14 0 24 4 21 9 -3 5 9 7 28 6 27 -3 36 1 46 20 7 14 17 22 22 19 4 -3 6 -10 3
-15 -4 -5 1 -9 9 -9 14 0 21 -18 17 -43 0 -4 5 -6 11 -5 10 2 14 -44 16 -199
2 -168 0 -203 -12 -203 -8 0 -14 -11 -14 -27 0 -36 8 -49 19 -32 5 9 9 -29 9
-92 0 -98 -2 -107 -20 -112 -11 -3 -20 -12 -20 -21 0 -9 -4 -16 -9 -16 -11 0
-5 -50 8 -63 14 -14 14 -47 1 -47 -5 0 -10 7 -10 15 0 15 -25 21 -33 8 -2 -5
-2 -3 -1 4 2 7 -1 15 -6 18 -5 3 -6 13 -3 21 3 9 0 20 -8 25 -19 12 -42 11
-34 0 3 -5 1 -12 -5 -16 -13 -8 -13 -35 1 -35 5 0 7 6 3 13 -4 6 2 3 13 -8 16
-16 17 -22 7 -28 -19 -11 -18 -41 1 -33 8 3 15 1 15 -4 0 -16 26 -12 63 10
l34 20 2 -55 c2 -54 -3 -62 -34 -55 -5 1 0 -9 13 -22 24 -26 30 -85 12 -119
-10 -18 -12 -18 -27 -4 -8 9 -22 14 -29 11 -8 -3 -14 -1 -14 5 0 6 -4 8 -9 4
-5 -3 -12 -1 -16 4 -18 30 -51 -30 -34 -62 12 -20 -12 -67 -34 -67 -22 0 -34
-27 -20 -48 12 -20 63 -35 60 -19 -1 7 -9 17 -17 24 -13 11 -12 12 8 13 14 0
21 4 16 11 -4 8 1 9 16 4 15 -5 27 -1 41 14 12 13 25 18 37 14 15 -6 15 -5 3
10 -11 14 -11 17 0 18 10 0 11 2 1 6 -16 6 -5 23 16 23 10 0 13 -3 7 -8 -13
-9 -19 -46 -7 -38 5 3 10 0 9 -7 0 -6 1 -120 1 -253 2 -257 5 -273 52 -275 14
-1 111 2 215 5 105 4 234 4 288 0 108 -8 112 -11 121 -85 2 -16 11 -40 20 -53
9 -14 16 -27 16 -29 0 -1 -93 -1 -207 1 -238 5 -453 -12 -710 -56 -137 -24
-163 -26 -168 -14 -4 11 -8 12 -20 2 -9 -7 -27 -10 -45 -6 -17 3 -30 1 -30 -4
0 -20 -31 -9 -39 12 -6 17 -5 24 5 26 25 6 15 25 -30 60 -22 17 -32 20 -43 11
-7 -7 -16 -9 -20 -5 -3 3 -11 -4 -17 -16 -21 -43 -76 -30 -76 17 0 14 -9 26
-25 33 -14 6 -25 19 -25 27 0 9 -4 14 -9 11 -5 -3 -14 1 -21 9 -18 21 6 51 27
34 10 -9 18 -8 33 6 23 21 18 35 -10 28 -16 -4 -19 -2 -13 12 5 13 3 16 -7 10
-8 -5 -11 -3 -8 6 3 8 14 13 24 12 10 -1 42 -4 69 -6 28 -1 55 -6 60 -9 6 -3
19 0 30 8 17 13 18 16 5 24 -8 5 -21 10 -27 10 -7 0 -13 5 -13 10 0 6 -6 10
-13 10 -19 0 -70 56 -63 68 3 6 1 16 -6 24 -7 7 -14 20 -16 27 -2 11 0 12 11
2 12 -9 16 -8 21 5 8 20 -30 53 -61 54 -16 0 -23 -6 -23 -20 0 -11 -4 -20 -9
-20 -5 0 -11 -9 -14 -20 -3 -12 -14 -20 -26 -20 -15 0 -19 5 -15 18 5 16 5 16
-6 -1 -6 -9 -18 -17 -25 -17 -8 0 -15 -9 -15 -20 0 -19 -15 -25 -60 -22 -12 0
-11 -2 3 -12 9 -7 17 -17 17 -22 1 -5 14 -20 30 -34 33 -27 36 -35 18 -54 -10
-11 -18 -10 -46 5 -18 11 -46 19 -62 19 -25 0 -43 6 -79 27 -2 2 8 14 22 27
18 17 27 35 27 56 0 39 38 97 68 103 12 2 25 0 28 -4 7 -12 44 -11 44 1 0 5 8
7 18 4 14 -5 15 -4 2 5 -8 5 -15 18 -15 28 0 12 -7 18 -22 17 -13 0 -21 1 -19
4 3 2 -8 15 -24 29 -17 14 -27 30 -23 38 4 11 -2 15 -20 15 -32 0 -46 -40 -16
-47 30 -8 35 -50 9 -78 -34 -36 -110 -26 -110 15 0 24 -27 36 -77 36 -29 0
-53 -3 -53 -6 0 -4 -18 -15 -40 -26 -22 -10 -40 -23 -40 -28 0 -4 -7 -5 -16
-2 -11 4 -14 1 -12 -12 2 -9 10 -16 17 -14 9 2 9 -3 1 -18 -8 -14 -8 -26 0
-40 12 -23 18 -24 56 -10 26 10 26 11 8 25 -10 8 -14 15 -9 15 18 0 34 -22 28
-38 -5 -12 1 -14 40 -10 26 3 47 2 47 -3 0 -5 6 -9 13 -9 6 0 21 -8 32 -16 20
-15 20 -15 0 -30 -11 -8 -31 -12 -50 -9 -16 3 -49 7 -71 9 -23 2 -56 13 -74
26 -25 17 -46 23 -101 24 l-69 1 1 70 c0 39 3 64 6 58 2 -7 9 -13 14 -13 11 0
0 54 -13 58 -16 7 -8 20 10 16 30 -8 79 31 85 68 7 46 11 61 21 76 11 18 0 42
-19 42 -10 0 -13 5 -9 12 4 7 3 8 -5 4 -6 -4 -9 -11 -6 -15 2 -5 -16 -30 -40
-57 l-45 -49 0 3608 0 3607 23 -5 c56 -14 118 -11 134 7 29 32 1 48 -83 48
l-74 0 0 290 c0 329 1 332 73 374 23 13 136 57 250 96 267 91 441 165 692 294
192 98 203 102 214 84 8 -13 9 -24 2 -31 -6 -8 -5 -20 4 -37 14 -25 14 -25 15
-2 0 12 5 22 11 22 6 0 8 13 5 35 -6 33 5 47 19 25 3 -5 12 -7 19 -4 9 4 19
-14 32 -57 10 -34 27 -67 36 -73 10 -6 18 -16 18 -22 0 -7 11 -15 25 -18 l25
-6 0 -439 c0 -434 0 -439 -20 -434 -19 5 -26 -9 -21 -39 0 -5 -5 -9 -11 -9 -7
-1 -24 -3 -38 -4 -86 -10 -300 -18 -817 -30 -187 -5 -249 -10 -273 -21 -38
-19 -38 -29 1 -43 21 -7 45 -8 75 -1 32 7 51 7 66 -1 16 -9 159 -10 530 -7
562 5 534 9 483 -57 -13 -18 -36 -36 -50 -39 -14 -4 -25 -13 -25 -21 0 -8 -5
-15 -11 -15 -7 0 -9 -9 -6 -21 3 -12 0 -22 -9 -26 -8 -3 -13 -12 -10 -20 3 -8
-4 -18 -19 -25 -13 -6 -22 -15 -19 -19 8 -14 44 -11 45 4 0 6 4 2 9 -10 9 -21
32 -33 29 -15 -3 19 2 26 10 13 7 -11 14 -11 41 3 18 9 35 16 37 16 1 0 4
-631 5 -1402 l3 -1401 29 74 c288 741 594 1152 933 1252 168 50 405 18 560
-75 139 -84 252 -243 260 -367 4 -58 1 -73 -24 -121 -40 -79 -94 -113 -181
-118 -84 -4 -125 18 -141 75 -18 63 -13 91 34 185 62 125 59 162 -20 215 -72
48 -144 67 -260 66 -238 -1 -425 -94 -537 -267 -108 -167 -136 -461 -62 -653
15 -37 27 -81 28 -96 0 -17 11 -38 26 -50 14 -12 46 -48 70 -81 192 -255 516
-435 860 -477 175 -22 332 26 462 141 147 130 262 379 319 684 26 143 36 447
20 607 -18 171 -66 394 -117 542 -24 73 -47 139 -50 147 -2 8 6 26 19 40 13
14 26 33 29 42 8 19 -14 31 -31 17 -8 -6 -8 -5 -1 3 16 20 11 38 -10 38 -11 0
-20 4 -20 9 0 5 -12 12 -27 16 -34 8 -45 21 -116 136 -201 325 -444 593 -882
974 -127 109 -272 237 -323 283 l-92 85 37 28 c114 86 175 129 182 129 4 0 18
11 31 25 13 14 28 25 33 25 5 0 29 20 54 45 25 25 60 52 77 59 18 8 49 33 69
58 21 26 45 44 59 45 12 1 24 7 26 13 2 5 12 10 23 10 26 0 24 14 -3 27 -13 6
-71 33 -129 62 -59 28 -110 51 -113 51 -10 0 -100 43 -106 51 -3 3 -34 9 -70
13 -87 10 -120 17 -120 26 0 8 17 11 178 35 68 11 118 24 147 40 26 15 46 21
50 15 7 -11 90 -3 116 11 10 5 26 6 36 2 12 -4 9 2 -9 20 -16 14 -28 30 -28
36 0 5 -38 42 -85 82 -47 40 -85 76 -85 81 0 4 -4 8 -8 8 -5 0 -42 33 -83 73
-41 39 -108 102 -149 139 -75 66 -192 176 -263 246 l-38 37 68 60 c295 258
581 586 748 855 85 138 172 315 192 393 l18 68 26 -29 c16 -17 33 -56 43 -98z
m-1654 -885 c0 -18 -18 -9 -23 12 -4 16 -3 18 9 8 8 -6 14 -15 14 -20z m674
-594 c-4 -8 -1 -21 5 -29 6 -7 8 -16 4 -20 -4 -4 1 -4 11 0 27 10 37 -15 19
-43 l-16 -24 -14 31 c-7 18 -10 36 -7 41 3 5 1 9 -4 9 -5 0 -14 11 -20 25 -10
22 -9 25 8 25 13 0 18 -5 14 -15z m119 -119 c7 -8 26 -39 42 -70 24 -48 27
-59 16 -82 -6 -14 -20 -28 -31 -31 -11 -3 -20 -9 -20 -14 0 -5 -8 -9 -18 -9
-11 0 -23 15 -33 45 -9 25 -13 45 -8 45 5 0 9 10 9 23 0 17 -2 19 -10 7 -11
-18 -16 -13 -25 28 -6 27 -4 32 12 32 11 0 24 -5 31 -12 8 -8 12 -8 12 -1 0 6
-7 14 -16 17 -12 5 -13 8 -2 20 16 19 23 19 41 2z m-963 -197 c0 -15 -4 -19
-16 -15 -9 3 -21 6 -27 6 -13 1 22 30 35 30 4 0 8 -9 8 -21z m-3855 -578 c427
-66 709 -86 1095 -77 318 7 489 17 793 47 204 20 220 21 235 5 15 -15 17 -51
20 -296 l3 -279 -23 -5 c-27 -6 -807 -16 -1205 -16 l-273 0 0 -24 c0 -47 8
-54 53 -46 23 5 141 8 262 9 538 3 892 12 937 23 36 9 53 9 73 0 14 -7 59 -12
100 -12 l75 0 -1 -3832 c0 -2108 -3 -3827 -6 -3820 -2 6 -20 12 -39 12 -19 0
-34 5 -34 10 0 6 -20 10 -44 10 -40 0 -44 -3 -49 -27 -19 -91 -24 -108 -33
-106 -6 1 -9 -21 -9 -50 1 -29 -3 -59 -8 -68 -6 -9 -7 -25 -2 -35 9 -22 12
-30 14 -44 0 -5 7 -10 15 -10 8 0 16 -6 19 -14 3 -8 16 -16 29 -18 15 -2 23
-10 23 -23 0 -12 12 -25 30 -34 37 -18 83 -68 91 -99 4 -13 2 -38 -4 -55 -6
-20 -10 -25 -11 -13 -1 16 -4 15 -21 -7 -11 -14 -19 -30 -18 -35 6 -21 -15
-16 -23 6 -5 12 -4 22 0 22 12 0 8 27 -7 42 -7 7 -12 18 -12 25 0 7 -4 13 -10
13 -5 0 -10 7 -10 16 0 8 -4 13 -8 10 -5 -3 -27 6 -51 20 -24 13 -49 24 -56
24 -8 0 -12 11 -11 30 2 26 -1 29 -18 24 -28 -9 -55 -45 -56 -74 0 -27 64
-130 81 -130 6 0 8 -4 5 -8 -3 -5 14 -27 37 -49 23 -23 50 -55 60 -72 18 -31
18 -31 -5 -32 -13 -1 -26 -1 -30 0 -5 0 -8 -3 -8 -9 0 -5 -9 -10 -20 -10 -23
0 -27 25 -5 34 20 7 19 22 -3 44 -10 10 -21 26 -25 35 -8 21 -27 22 -27 2 0
-8 4 -15 8 -15 10 0 12 -9 15 -64 1 -24 -3 -41 -10 -43 -8 -3 -13 5 -13 21 0
30 -13 40 -46 32 -32 -8 -30 -21 5 -36 48 -20 47 -38 -5 -60 -133 -58 -502
-180 -541 -180 -17 0 -36 -6 -40 -14 -4 -8 -111 -46 -238 -85 -1004 -308
-1800 -462 -2390 -463 -353 -1 -607 70 -758 212 -110 102 -152 210 -145 369 5
111 34 186 96 248 103 104 289 106 375 4 71 -85 52 -211 -32 -211 -35 0 -86
53 -75 79 28 67 29 71 12 87 -24 25 -97 28 -138 7 -74 -38 -123 -156 -109
-261 11 -80 69 -192 127 -242 92 -82 205 -122 347 -124 84 -1 97 2 157 32 184
90 317 351 350 684 9 91 9 140 0 208 -46 340 -276 665 -580 820 -146 74 -307
110 -491 110 -512 0 -868 -260 -1010 -737 -52 -174 -79 -447 -61 -615 22 -210
104 -483 210 -703 49 -101 68 -155 54 -155 -2 0 -19 9 -39 20 -19 11 -35 17
-35 14 0 -4 -8 3 -17 14 -10 12 -27 22 -38 24 -16 2 -20 -2 -18 -22 1 -14 0
-18 -3 -7 -3 9 -10 17 -15 17 -6 0 -9 8 -7 17 2 12 -4 17 -21 18 -15 0 -25 7
-27 17 -1 10 -9 25 -18 34 -19 18 -24 62 -6 57 4 -1 18 9 31 23 21 22 21 24 4
18 -18 -7 -19 -6 -6 10 13 15 12 17 -12 12 -15 -3 -36 -7 -46 -11 -16 -5 -24
7 -51 77 -214 559 -174 1175 105 1624 286 459 824 770 1444 835 143 15 471 6
601 -16 384 -64 670 -203 905 -439 141 -141 306 -395 288 -443 -4 -10 -28 -51
-55 -92 -59 -92 -61 -112 -10 -128 33 -10 39 -10 56 7 18 18 18 20 3 26 -24 9
-21 34 4 34 18 0 20 4 15 26 -6 23 -5 25 16 19 19 -6 21 -5 11 6 -7 7 -13 22
-12 33 1 33 37 -57 65 -161 42 -156 55 -252 61 -428 4 -143 1 -187 -16 -279
-11 -59 -22 -111 -25 -114 -3 -3 -14 2 -23 10 -26 23 -81 32 -98 18 -8 -7 -15
-25 -15 -41 0 -34 -8 -39 -62 -44 -44 -4 -125 -53 -121 -73 1 -6 -17 -17 -41
-25 -40 -14 -46 -14 -72 4 -29 19 -40 46 -16 41 6 -1 12 2 12 8 0 5 11 10 25
10 31 0 52 34 34 56 -16 19 -31 97 -31 151 1 38 -2 44 -26 49 -15 4 -30 12
-34 18 -5 8 -11 7 -20 -2 -15 -15 -40 -16 -55 -1 -9 9 -8 17 3 34 8 12 13 32
13 46 -3 37 19 82 36 76 9 -4 19 5 27 24 7 16 17 29 22 29 4 0 6 7 2 15 -3 9
0 15 9 15 8 0 15 5 15 10 0 13 32 45 52 53 10 3 15 13 11 25 -3 13 4 26 21 40
14 11 26 24 26 29 0 5 14 22 30 37 27 23 30 31 24 66 -5 30 -3 40 7 41 8 0 23
2 33 4 10 2 26 -3 34 -12 14 -14 17 -13 29 3 20 27 16 36 -34 72 -50 37 -67
36 -86 -5 -6 -15 -20 -37 -29 -48 -9 -11 -26 -31 -37 -44 -12 -13 -21 -29 -21
-34 0 -6 -19 -40 -42 -76 -23 -36 -70 -111 -106 -166 -35 -55 -78 -122 -95
-150 -18 -27 -46 -74 -63 -105 -28 -49 -111 -178 -131 -205 -36 -46 -113 -183
-113 -200 0 -19 106 -24 185 -8 33 6 128 17 210 23 117 10 155 17 174 31 28
23 54 27 201 33 l115 4 -3 -57 c-3 -45 1 -62 18 -83 25 -33 88 -45 150 -28 61
16 140 98 168 173 l22 58 0 2039 c0 1215 4 2041 9 2045 5 3 13 -4 16 -16 4
-12 10 -17 14 -12 10 16 39 23 43 11 3 -7 11 -9 24 -4 17 8 16 10 -11 21 -16
7 -34 12 -40 11 -5 -2 -7 -1 -3 1 13 7 -10 41 -32 48 -15 5 -20 15 -20 40 0
28 -12 45 -72 106 -40 40 -65 67 -55 60 18 -14 20 -12 11 12 -3 9 -14 12 -29
10 -15 -3 -47 9 -93 36 -129 77 -309 141 -477 170 -119 21 -337 31 -450 21
-277 -24 -484 -128 -582 -292 -58 -95 -89 -268 -64 -355 8 -27 7 -32 -10 -35
-14 -2 -16 -7 -9 -18 8 -12 11 -13 19 -1 6 10 15 0 32 -35 69 -138 248 -253
396 -254 53 0 91 14 126 48 38 36 34 63 -18 122 -25 28 -45 54 -45 58 0 4 18
15 40 25 37 16 54 37 30 37 -20 0 -9 21 16 31 38 14 25 19 -21 9 -64 -15 -71
-13 -46 14 45 48 162 42 214 -10 57 -57 57 -200 -1 -293 -68 -111 -270 -187
-421 -160 -93 18 -232 89 -172 89 12 0 21 6 21 14 0 12 -7 12 -37 4 l-38 -10
-58 63 c-98 106 -147 233 -168 430 -28 269 54 561 219 781 82 109 181 207 203
201 26 -7 58 23 52 47 -6 23 24 41 52 29 37 -15 81 -10 104 13 22 20 23 22 6
34 -10 7 -23 15 -29 18 -18 8 32 42 154 105 148 76 242 114 382 150 164 43
187 45 195 25 4 -10 0 -22 -10 -29 -10 -7 -14 -19 -10 -33 4 -18 2 -21 -11
-16 -12 5 -15 2 -10 -10 3 -9 12 -16 19 -16 6 0 20 -9 30 -20 10 -11 23 -20
29 -20 6 0 22 -7 35 -17 23 -15 23 -17 5 -30 -17 -12 -16 -14 14 -25 18 -7 32
-16 32 -21 0 -5 11 -2 25 7 13 9 31 16 39 16 20 0 30 18 18 33 -6 8 -5 28 6
60 14 45 14 49 -4 61 -54 38 -69 56 -56 64 8 5 13 13 13 18 -1 14 247 6 353
-11 53 -8 98 -15 101 -15 3 0 5 315 5 699 l0 700 -55 20 c-76 29 -232 59 -347
67 -80 5 -95 9 -91 22 8 19 -23 42 -58 42 -14 0 -32 7 -39 15 -7 8 -16 12 -21
9 -7 -4 4 32 17 54 1 1 13 -2 28 -7 32 -13 33 -1 2 28 -20 18 -28 21 -44 12
-11 -6 -22 -16 -24 -22 -3 -8 -10 -6 -21 5 -22 23 -21 33 3 41 11 3 20 11 20
16 0 5 11 9 25 9 14 0 25 5 25 11 0 7 8 9 23 4 25 -7 28 -7 77 -2 19 2 40 0
47 -5 16 -13 25 6 17 37 -3 14 -12 25 -20 25 -8 0 -14 7 -14 15 0 8 5 15 12
15 6 0 9 3 5 6 -3 4 -12 4 -19 2 -7 -3 -17 -6 -23 -7 -10 -1 -11 2 -14 33 0 7
-20 20 -43 28 -72 25 -73 25 -72 1 0 -13 -1 -23 -2 -23 -2 0 -12 17 -24 38
-30 54 -116 78 -96 27 3 -9 0 -12 -10 -8 -7 3 -14 14 -14 24 0 17 -11 24 -34
20 -5 -1 -17 6 -28 16 -20 18 -20 18 13 23 25 4 38 1 50 -12 17 -18 55 -28
119 -32 19 -1 45 -7 56 -14 19 -10 23 -9 28 13 6 24 26 36 26 15 0 -17 41 -33
53 -21 13 13 47 -13 47 -36 0 -22 14 -15 27 14 11 23 10 29 -12 51 -14 14 -25
29 -25 34 0 5 -10 9 -22 8 -35 -3 -67 10 -73 30 -10 30 -35 33 -35 4 0 -16 7
-27 22 -33 13 -5 17 -10 10 -14 -6 -4 -27 3 -48 15 -30 18 -34 23 -19 28 15 5
15 7 2 19 -9 7 -23 36 -33 64 -9 29 -22 62 -30 74 -14 22 -12 23 79 52 162 52
315 83 520 106 l57 6 0 549 c0 363 -4 558 -11 577 -5 15 -22 41 -37 56 -56 60
-141 88 -420 142 -144 27 -211 53 -243 93 -40 52 -2 109 66 97 17 -3 116 -18
220 -34z m-1019 -538 c68 -23 144 -101 174 -178 32 -81 39 -244 16 -336 -27
-107 -86 -217 -155 -289 -35 -36 -60 -58 -58 -49 6 18 -43 69 -67 69 -18 0
-40 -36 -31 -50 3 -5 -3 -20 -15 -32 -17 -19 -24 -21 -40 -10 -11 7 -24 12
-30 12 -18 0 -11 -35 10 -50 18 -13 18 -16 4 -31 -15 -16 -17 -16 -35 -1 -10
9 -19 26 -19 38 0 12 -7 27 -15 34 -9 7 -14 19 -11 26 3 7 0 15 -7 17 -7 3 0
8 16 12 15 4 27 11 27 16 0 6 10 1 22 -11 19 -17 24 -18 36 -6 17 16 8 36 -16
36 -12 1 -7 9 17 30 29 24 37 27 50 17 14 -10 14 -10 3 5 -11 14 -9 21 17 50
38 44 77 122 87 173 4 22 11 43 16 46 5 3 6 13 2 23 -5 14 -9 15 -15 5 -14
-24 -23 1 -12 31 13 35 8 38 -15 10 -24 -29 -121 -46 -172 -31 -112 33 -166
151 -125 272 47 136 194 202 341 152z m-328 -865 c19 -19 14 -28 -17 -28 -16
0 -31 -5 -33 -12 -3 -9 -6 -9 -12 0 -7 11 26 52 42 52 4 0 13 -5 20 -12z m62
-83 c0 -8 -6 -15 -14 -15 -8 0 -16 7 -20 15 -4 10 1 15 14 15 11 0 20 -7 20
-15z m1010 -178 c0 -13 9 -33 21 -46 17 -18 18 -25 8 -37 -9 -11 -8 -19 7 -36
19 -20 19 -21 -5 -13 -13 4 -29 8 -35 10 -6 1 -19 5 -28 9 -9 4 -25 3 -35 -3
-15 -7 -22 -5 -31 9 -6 10 -27 24 -48 30 -46 15 -36 26 61 69 85 37 85 37 85
8z m-233 -93 c-3 -4 1 -13 9 -21 8 -9 13 -22 10 -29 -4 -11 0 -11 18 1 21 14
24 14 30 -1 8 -21 -1 -34 -23 -34 -10 0 -21 -9 -24 -20 -7 -27 -21 -25 -35 5
-10 21 -9 23 6 19 9 -2 7 1 -5 7 -12 7 -34 8 -50 4 -15 -3 -30 -6 -31 -5 -2 1
-9 -6 -16 -16 -10 -13 -15 -14 -20 -5 -10 15 -8 17 62 63 50 33 87 49 69 32z
m108 -23 c10 -17 -10 -20 -35 -5 l-25 13 27 1 c15 0 29 -4 33 -9z m80 -31 c3
-5 -1 -10 -9 -10 -9 0 -16 5 -16 10 0 6 4 10 9 10 6 0 13 -4 16 -10z m-357
-82 c9 -9 12 -9 12 1 0 11 3 11 15 1 8 -7 30 -20 48 -29 29 -15 32 -19 29 -58
-3 -44 10 -62 33 -43 14 12 17 9 45 -45 8 -16 24 -32 34 -33 10 -2 28 -12 39
-23 21 -20 42 -16 33 7 -3 7 -1 16 4 19 6 4 10 0 10 -7 0 -9 3 -9 8 -2 10 15
40 14 46 -3 3 -7 0 -12 -7 -10 -7 1 -11 -6 -11 -15 1 -12 -4 -17 -19 -14 -23
3 -50 -18 -60 -47 -5 -13 -11 -15 -24 -8 -10 6 -40 20 -67 31 -35 16 -51 30
-59 51 -6 16 -16 29 -22 30 -5 0 -25 2 -42 3 -20 2 -33 -1 -33 -8 0 -6 -4 -18
-10 -26 -7 -12 -12 -12 -29 4 -14 13 -28 16 -46 12 -20 -5 -31 -1 -45 16 -11
13 -19 31 -20 41 0 10 -7 20 -15 23 -8 4 -15 12 -15 20 0 21 68 67 101 67 16
0 29 4 29 9 0 4 8 8 18 8 16 1 16 1 0 11 -10 5 -18 14 -18 19 0 14 24 12 38
-2z m192 -113 c0 -8 -4 -15 -10 -15 -5 0 -7 7 -4 15 4 8 8 15 10 15 2 0 4 -7
4 -15z m110 -35 c0 -5 -2 -10 -4 -10 -3 0 -8 5 -11 10 -3 6 -1 10 4 10 6 0 11
-4 11 -10z m-520 -30 c0 -5 11 -10 24 -10 14 0 31 -9 39 -20 8 -12 21 -18 29
-15 9 4 18 -1 21 -9 4 -11 1 -16 -12 -16 -34 0 -41 -22 -25 -70 9 -25 22 -52
30 -61 9 -10 12 -26 8 -45 -5 -27 -3 -30 22 -32 15 -1 33 -7 40 -13 7 -6 17
-8 23 -5 5 3 11 1 13 -5 2 -7 16 -13 30 -15 21 -2 26 1 22 14 -2 9 2 4 10 -13
8 -16 15 -40 16 -53 0 -30 -42 -72 -69 -67 -13 2 -22 -3 -26 -15 -3 -10 -13
-24 -22 -32 -14 -11 -16 -11 -11 3 8 19 -19 62 -33 54 -5 -4 -9 -15 -9 -26 0
-19 -1 -19 -16 -5 -18 19 -17 19 -49 4 -25 -11 -34 -28 -15 -28 6 0 15 -11 20
-24 7 -19 14 -23 32 -19 21 6 20 3 -10 -28 -111 -115 -198 -257 -231 -376 -75
-278 57 -575 270 -609 54 -9 79 -34 79 -79 l0 -35 -63 0 c-153 0 -315 88 -412
225 -95 133 -136 278 -136 484 0 122 22 283 42 307 5 6 7 13 4 16 -9 8 54 176
97 263 47 93 118 202 196 298 51 63 72 80 72 57z m292 -132 c-12 -12 -64 1
-56 14 3 5 16 13 28 17 24 10 45 -14 28 -31z m22 -13 c-4 -8 -2 -15 3 -15 5 0
9 -9 9 -20 0 -26 -2 -25 -22 6 -15 22 -15 27 -3 35 19 12 19 11 13 -6z m-170
-31 c7 -18 -21 -31 -35 -17 -13 13 0 43 16 37 7 -3 16 -12 19 -20z m356 -22
c0 -5 -7 -9 -15 -9 -8 0 -12 4 -9 9 3 4 9 8 15 8 5 0 9 -4 9 -8z m115 -19 c31
-15 41 -25 33 -36 -2 -2 3 -11 10 -20 11 -13 8 -16 -27 -22 -47 -8 -101 11
-101 35 1 61 24 72 85 43z m-218 1 c-3 -3 -12 -4 -19 -1 -8 3 -5 6 6 6 11 1
17 -2 13 -5z m-3 -21 c4 -5 11 -8 14 -8 19 -2 58 -19 64 -29 4 -5 2 -16 -4
-23 -12 -15 -38 -17 -38 -4 0 5 -12 12 -27 16 -29 7 -43 21 -43 43 0 13 22 16
34 5z m361 -1623 c3 -5 -1 -10 -10 -10 -9 0 -13 5 -10 10 3 6 8 10 10 10 2 0
7 -4 10 -10z m4925 -1210 c0 -5 -7 -10 -15 -10 -8 0 -15 5 -15 10 0 6 7 10 15
10 8 0 15 -4 15 -10z m-974 -742 c1 -18 0 -25 -3 -15 -2 9 -11 17 -19 17 -12
0 -12 4 -2 20 15 24 21 19 24 -22z m-96 -208 c0 -5 -4 -10 -10 -10 -5 0 -10 5
-10 10 0 6 5 10 10 10 6 0 10 -4 10 -10z m-117 -58 c-10 -6 -9 -14 3 -37 17
-34 13 -52 -13 -50 -27 2 -45 15 -39 30 3 8 1 15 -5 17 -17 6 22 48 44 48 14
0 18 -3 10 -8z m-63 -56 c0 -3 -4 -8 -10 -11 -5 -3 -10 -1 -10 4 0 6 5 11 10
11 6 0 10 -2 10 -4z m60 -92 c0 -2 -7 -4 -15 -4 -8 0 -15 4 -15 10 0 5 7 7 15
4 8 -4 15 -8 15 -10z m400 -176 c0 -11 -4 -16 -10 -13 -5 3 -10 1 -10 -6 0 -6
-8 -9 -20 -6 -11 3 -23 1 -26 -4 -3 -5 7 -9 23 -10 l28 -1 -25 -7 c-29 -8 -51
8 -49 36 1 15 2 15 6 2 3 -14 8 -15 28 -5 14 6 25 16 25 22 0 6 7 11 15 11 8
0 15 -9 15 -19z m-96 -84 c3 -8 2 -12 -4 -9 -6 3 -10 10 -10 16 0 14 7 11 14
-7z m-374 -84 c0 -5 -4 -10 -10 -10 -5 0 -10 5 -10 10 0 6 5 10 10 10 6 0 10
-4 10 -10z m72 -22 c-15 -15 -16 -32 -2 -23 6 3 10 1 10 -5 0 -6 -7 -13 -15
-16 -8 -4 -12 -10 -9 -15 3 -5 -3 -6 -12 -2 -13 5 -16 3 -11 -10 4 -11 -5 -8
-33 11 -21 15 -41 36 -44 47 -5 19 -4 19 8 3 14 -20 31 -25 20 -7 -4 7 -1 10
7 7 8 -3 20 1 27 9 7 7 25 13 40 13 20 0 23 -3 14 -12z m38 -64 c0 -18 -14
-18 -29 0 -9 11 -9 15 1 19 17 6 28 -1 28 -19z m-820 -1304 c0 -5 -2 -10 -4
-10 -3 0 -8 5 -11 10 -3 6 -1 10 4 10 6 0 11 -4 11 -10z m420 -221 c0 -5 -9
-9 -19 -9 -11 0 -22 4 -25 9 -3 5 6 9 19 9 14 0 25 -4 25 -9z m1699 -95 c176
-32 405 -94 556 -151 217 -82 462 -213 472 -254 4 -12 9 -16 12 -10 7 11 110
-56 111 -71 0 -4 -12 -32 -26 -62 -14 -30 -24 -61 -21 -68 2 -7 -5 -25 -15
-40 -11 -16 -16 -28 -12 -28 4 0 4 -3 1 -6 -4 -4 -51 36 -105 88 -253 243
-595 396 -1015 457 -109 15 -122 20 -123 37 -1 26 -31 71 -51 78 -12 5 -13 9
-3 21 10 12 8 13 -9 10 -14 -2 -25 3 -32 17 -11 21 -10 21 57 14 37 -4 129
-18 203 -32z m-1994 -162 c121 -32 293 -75 315 -79 14 -3 34 -8 45 -13 11 -5
26 -10 34 -12 8 -3 -37 -19 -100 -38 -63 -18 -194 -61 -292 -96 -183 -66 -207
-72 -207 -53 0 5 4 8 9 4 19 -11 49 50 56 115 4 36 18 87 32 114 13 26 22 54
19 61 -7 19 3 25 27 15 12 -4 40 -13 62 -18z m528 -31 c3 -14 1 -18 -9 -14 -8
3 -14 14 -14 25 0 23 16 16 23 -11z m532 -177 c9 -10 14 -25 12 -35 -3 -11 -1
-21 4 -24 5 -4 9 -645 9 -1495 l0 -1490 -36 -15 c-20 -8 -46 -15 -58 -15 -13
0 -48 -19 -80 -43 -46 -35 -67 -44 -104 -46 -30 -1 -61 -11 -84 -26 -20 -13
-48 -27 -62 -31 -14 -3 -30 -12 -37 -20 -10 -12 -16 -11 -40 3 -31 18 -61 83
-80 175 -12 54 -49 105 -67 94 -21 -13 -39 -58 -71 -181 -65 -246 -69 -258
-107 -283 -18 -12 -41 -22 -51 -22 -9 0 -24 -6 -32 -14 -9 -7 -26 -17 -38 -20
-18 -6 -22 -4 -17 8 4 12 0 16 -16 16 -18 0 -21 -4 -16 -24 5 -19 -1 -29 -27
-49 -18 -14 -49 -33 -68 -42 -19 -9 -65 -34 -104 -55 -38 -21 -95 -51 -125
-66 -30 -15 -56 -31 -58 -36 -2 -4 -11 -8 -21 -8 -9 0 -25 -6 -36 -14 -30 -20
-75 -26 -75 -10 0 9 -11 14 -31 14 -29 0 -30 1 -24 33 8 37 25 59 32 40 5 -15
59 -18 67 -4 6 9 -35 69 -59 87 -12 9 -13 22 -6 70 19 120 21 279 21 1607 1
1037 4 1357 13 1354 12 -4 37 16 37 30 0 4 -9 14 -21 21 -20 13 -20 14 -3 33
9 10 23 19 31 19 7 0 13 4 13 9 0 5 14 14 30 20 17 5 30 14 30 19 0 15 141 89
295 156 250 107 578 213 775 250 62 12 75 12 101 -1 33 -17 89 -24 89 -11 0 4
6 6 13 4 6 -1 9 -1 5 1 -5 3 -8 11 -8 19 0 20 64 18 85 -2z m2234 -268 c-2 -2
-15 -9 -29 -16 -23 -12 -24 -12 -11 3 7 10 20 17 29 17 8 0 13 -2 11 -4z m14
-65 c4 0 15 -1 25 -1 10 0 26 -13 35 -30 10 -17 13 -30 8 -30 -6 0 -11 -18
-11 -40 0 -41 -14 -52 -38 -28 -9 9 -11 7 -8 -9 3 -16 0 -20 -13 -16 -10 2
-25 -2 -34 -11 -14 -14 -17 -14 -35 2 -24 21 -49 105 -33 110 6 2 11 9 11 15
0 23 44 55 65 47 11 -4 23 -8 28 -9z m-159 -48 c13 -33 -18 -45 -40 -15 -19
24 -17 27 10 28 14 1 27 -5 30 -13z m76 -153 c13 -7 21 -7 25 0 3 5 11 10 16
10 6 0 7 -4 4 -10 -3 -6 1 -7 10 -4 9 4 24 -1 35 -11 10 -9 24 -14 31 -9 7 4
28 8 48 10 19 1 37 7 39 13 23 68 82 -163 82 -318 0 -474 -298 -855 -765 -978
-131 -34 -233 -43 -376 -33 -345 25 -589 158 -704 384 -49 97 -85 239 -56 221
5 -3 12 -1 16 4 3 6 13 7 22 4 11 -4 14 -2 11 8 -3 8 -1 22 3 31 8 15 4 16
-32 12 l-40 -5 6 48 c18 130 86 229 187 273 108 47 241 11 283 -76 15 -33 17
-55 10 -185 -8 -162 2 -222 51 -305 13 -22 21 -44 16 -49 -4 -4 -2 -5 5 -1 7
4 17 -2 23 -13 14 -27 125 -105 173 -122 20 -7 37 -17 37 -21 0 -4 10 -8 23
-8 12 0 75 -3 141 -6 142 -8 199 2 311 56 240 116 425 423 425 704 0 102 -25
221 -65 311 -34 77 -33 85 5 65z m-6550 -110 c0 -5 -5 -10 -11 -10 -5 0 -7 5
-4 10 3 6 8 10 11 10 2 0 4 -4 4 -10z m1678 -432 c6 -1 12 -5 12 -10 0 -4 11
-8 23 -8 35 0 112 -81 147 -155 40 -84 48 -164 25 -236 -25 -75 -78 -179 -140
-274 -54 -84 -191 -255 -204 -255 -4 0 -12 5 -19 12 -7 7 -12 9 -12 6 0 -4
-12 -1 -27 7 -19 10 -32 11 -45 4 -16 -9 -20 -7 -25 10 -3 11 -9 18 -14 15 -5
-3 -9 -1 -9 5 0 6 13 8 33 4 l32 -6 -30 32 -29 32 57 57 c54 54 57 56 57 30 0
-39 19 -45 26 -9 4 17 10 28 14 26 5 -3 6 4 3 15 -3 11 -9 20 -14 20 -4 0 16
33 45 74 60 84 91 146 110 217 11 43 14 48 25 35 7 -9 18 -13 23 -10 6 4 5 10
-3 15 -10 6 -11 9 -1 9 15 0 16 34 2 61 -6 11 -7 19 -1 19 16 0 23 88 10 125
-12 32 -16 35 -55 35 -23 0 -44 5 -46 11 -3 8 -26 7 -81 -3 -52 -10 -78 -11
-80 -4 -7 22 6 54 26 65 12 7 33 18 47 27 23 13 41 14 118 2z m-44 -145 c3 -8
1 -11 -4 -8 -6 3 -10 1 -10 -4 0 -13 -20 -14 -39 -2 -12 8 -12 12 -2 24 14 17
47 12 55 -10z m-4262 -167 c-2 -15 2 -34 8 -41 8 -9 7 -14 -5 -19 -8 -3 -15
-10 -15 -17 0 -6 6 -9 14 -6 15 6 46 -22 46 -41 0 -7 5 -12 10 -12 6 0 10 -14
10 -32 0 -17 3 -28 6 -25 4 4 15 -3 25 -14 10 -12 35 -23 57 -26 34 -5 50 -17
113 -87 160 -177 340 -325 531 -439 102 -61 296 -156 360 -176 l37 -12 -26
-42 c-14 -23 -30 -47 -35 -54 -7 -9 -37 0 -116 33 -206 86 -419 211 -602 352
-98 75 -400 374 -400 396 0 7 -6 16 -13 19 -16 6 -177 242 -177 258 0 7 10 9
28 4 38 -10 104 -14 126 -8 15 4 16 7 5 15 -12 8 -11 9 1 5 10 -3 14 -14 12
-31z m4061 -628 c21 -3 22 -21 2 -38 -13 -10 -23 -10 -55 3 -23 9 -42 11 -46
6 -6 -11 -24 -2 -24 12 0 6 4 8 9 5 5 -3 14 0 20 8 6 7 24 11 43 9 18 -2 41
-4 51 -5z m-193 -18 c0 -5 -2 -10 -4 -10 -3 0 -8 5 -11 10 -3 6 -1 10 4 10 6
0 11 -4 11 -10z m-52 -32 c-3 -7 -17 -53 -33 -103 -15 -49 -33 -103 -40 -120
-7 -16 -15 -39 -17 -50 -4 -25 -84 -68 -248 -134 -407 -163 -895 -220 -1450
-170 -209 19 -480 68 -652 120 -73 21 -75 25 -51 89 4 8 7 22 7 30 1 18 -8 19
143 -19 408 -103 939 -121 1328 -45 321 62 688 206 925 363 79 52 95 59 88 39z
m197 -38 c3 -5 1 -10 -4 -10 -6 0 -11 5 -11 10 0 6 2 10 4 10 3 0 8 -4 11 -10z
m3056 -1200 c67 -263 169 -463 303 -595 l61 -59 2 -88 c2 -86 1 -88 -22 -88
-75 0 -275 90 -383 173 -93 72 -234 227 -311 343 -67 99 -136 223 -129 229 2
1 13 7 25 14 12 6 20 17 17 25 -3 7 12 28 32 45 27 24 43 32 62 28 14 -3 36 2
49 10 47 31 178 72 223 70 l44 -2 27 -105z m-907 -284 c-3 -9 -10 -13 -16 -10
-5 3 -4 12 3 20 15 18 22 13 13 -10z m-74 -80 c0 -7 12 -11 29 -10 l30 2 -25
-57 c-251 -567 -856 -1067 -1358 -1123 -206 -23 -378 33 -510 166 -74 74 -150
196 -127 204 7 2 16 15 21 28 13 33 42 30 63 -6 38 -64 129 -150 190 -179 131
-64 255 -62 396 4 235 112 448 352 586 663 39 88 45 97 80 109 20 7 42 10 47
7 6 -4 20 4 32 17 23 26 71 48 124 56 19 3 50 16 70 29 l36 25 27 -30 27 -30
15 23 c9 13 13 33 10 44 -5 22 22 45 68 56 20 4 28 0 43 -24 9 -17 21 -30 25
-30 8 0 22 24 25 40 1 3 8 12 15 21 17 17 61 13 61 -5z m2010 -8 c49 -34 83
-103 75 -153 -25 -160 -258 -296 -536 -312 -94 -6 -97 -5 -110 18 -7 13 -13
29 -14 34 0 6 -6 20 -12 31 -10 17 -10 25 0 38 11 14 16 14 62 0 68 -21 184
-14 250 15 94 42 154 123 155 209 0 73 39 141 81 142 9 0 31 -10 49 -22z
m-3936 -717 c3 -5 -3 -11 -15 -14 -16 -4 -18 -3 -8 9 13 16 16 17 23 5z"/>
<path d="M13298 20273 c6 -2 18 -2 25 0 6 3 1 5 -13 5 -14 0 -19 -2 -12 -5z"/>
<path d="M14670 20085 c0 -9 -11 -20 -25 -25 -31 -12 -32 -26 -2 -34 36 -10
45 -7 52 14 4 12 15 20 28 20 22 0 21 1 -3 20 -30 24 -50 25 -50 5z"/>
<path d="M11557 19963 c-4 -3 -7 -14 -7 -23 0 -19 64 -27 75 -10 15 25 -47 55
-68 33z"/>
<path d="M14867 19954 c-3 -3 4 -17 16 -30 25 -29 32 -25 16 10 -12 26 -20 31
-32 20z"/>
<path d="M14709 19878 c-1 -7 -3 -23 -4 -35 -1 -13 2 -23 8 -23 5 0 16 -8 23
-17 12 -16 13 -16 14 -1 0 9 5 18 11 20 15 5 -6 40 -32 57 -15 9 -19 8 -20 -1z"/>
<path d="M10095 19737 c-22 -5 -96 -22 -166 -38 -122 -29 -126 -30 -173 -14
-34 12 -52 13 -59 6 -13 -13 -15 -11 48 -39 28 -13 58 -27 67 -33 10 -5 29 -9
43 -9 22 0 24 3 15 19 -15 29 -14 29 33 25 23 -3 66 -6 94 -8 54 -3 96 -27 87
-50 -3 -7 6 -18 20 -24 21 -9 24 -9 19 3 -3 8 -9 15 -14 15 -5 0 -9 10 -9 23
-1 12 -7 33 -15 47 -22 38 -18 44 18 23 65 -39 107 -38 107 3 0 17 -6 24 -20
24 -11 0 -20 4 -20 10 0 18 -35 26 -75 17z"/>
<path d="M10305 19710 c-3 -5 0 -10 8 -10 8 0 18 -7 21 -16 4 -10 13 -13 27
-9 13 4 25 1 32 -9 14 -18 77 -34 77 -18 0 5 -7 15 -15 22 -8 7 -15 19 -15 27
0 10 -6 13 -16 9 -9 -3 -21 -3 -27 1 -20 12 -85 14 -92 3z"/>
<path d="M9755 19600 c-4 -6 17 -35 46 -65 69 -73 78 -72 49 3 -13 35 -83 81
-95 62z"/>
<path d="M12946 19511 c-68 -33 -64 -59 14 -76 19 -4 38 -12 41 -18 14 -20 24
3 24 55 0 46 -3 53 -20 55 -11 1 -37 -6 -59 -16z"/>
<path d="M9599 19473 c-19 -42 -24 -64 -28 -130 -1 -7 -12 -13 -26 -13 -34 0
-32 -27 3 -42 38 -16 72 -19 94 -7 16 9 18 17 12 61 -4 28 -8 65 -9 82 -1 17
-2 46 -3 64 -3 45 -16 40 -43 -15z"/>
<path d="M9940 19496 c0 -6 4 -16 10 -22 6 -6 3 -15 -10 -26 -11 -10 -22 -13
-25 -8 -4 6 -13 10 -21 10 -24 0 5 -41 61 -88 12 -10 15 -10 15 0 0 7 5 20 10
28 8 13 12 12 25 -7 23 -33 35 -28 29 10 -2 17 -6 39 -8 49 -4 25 -24 45 -57
57 -22 7 -29 7 -29 -3z"/>
<path d="M14087 19493 c-4 -3 -7 -10 -7 -14 0 -11 30 -39 41 -39 16 0 10 48
-7 54 -19 7 -19 7 -27 -1z"/>
<path d="M10121 19406 c-13 -15 -4 -26 21 -26 21 0 24 25 4 33 -8 3 -19 0 -25
-7z"/>
<path d="M14340 19304 c0 -22 27 -71 43 -77 11 -4 11 2 -1 38 -14 43 -42 69
-42 39z"/>
<path d="M14106 19093 c-6 -14 -5 -15 5 -6 7 7 10 15 7 18 -3 3 -9 -2 -12 -12z"/>
<path d="M14060 19080 c0 -5 5 -10 11 -10 5 0 7 5 4 10 -3 6 -8 10 -11 10 -2
0 -4 -4 -4 -10z"/>
<path d="M13953 19025 c4 -8 2 -17 -4 -21 -6 -3 2 -17 19 -33 16 -14 31 -34
33 -44 5 -22 25 -19 22 3 -1 8 -4 24 -5 36 -5 31 -36 74 -54 74 -10 0 -14 -6
-11 -15z"/>
<path d="M14055 18991 c-6 -11 13 -26 22 -17 4 3 1 6 -6 6 -7 0 -9 5 -6 10 3
6 4 10 1 10 -3 0 -7 -4 -11 -9z"/>
<path d="M13217 18978 c-7 -23 4 -44 34 -62 29 -17 49 -15 49 6 0 5 -7 8 -15
4 -10 -4 -20 5 -29 29 -15 36 -31 45 -39 23z"/>
<path d="M13489 18963 c-12 -14 -69 -18 -69 -5 0 4 -17 6 -37 5 -51 -2 -50 -2
-33 -13 11 -7 12 -12 3 -21 -12 -12 -6 -39 11 -51 7 -5 4 -8 -6 -8 -10 0 -18
5 -18 10 0 6 -7 10 -15 10 -19 0 -19 -13 0 -49 12 -24 23 -30 62 -36 76 -10
165 -6 182 9 9 7 22 11 29 9 6 -3 12 0 12 6 0 6 -3 11 -7 11 -5 0 -9 16 -10
35 -2 50 -31 92 -65 97 -16 3 -33 -1 -39 -9z"/>
<path d="M13622 18906 c7 -8 15 -12 17 -11 5 6 -10 25 -20 25 -5 0 -4 -6 3
-14z"/>
<path d="M13700 18850 c0 -5 5 -10 11 -10 5 0 7 5 4 10 -3 6 -8 10 -11 10 -2
0 -4 -4 -4 -10z"/>
<path d="M8313 18122 c-8 -5 -8 -13 2 -32 l14 -25 1 33 c0 35 0 35 -17 24z"/>
<path d="M9046 16505 c4 -8 8 -15 10 -15 2 0 4 7 4 15 0 8 -4 15 -10 15 -5 0
-7 -7 -4 -15z"/>
<path d="M16530 18709 c0 -5 -4 -7 -10 -4 -5 3 -10 1 -10 -4 0 -6 7 -11 15
-11 8 0 15 7 15 15 0 8 -2 15 -5 15 -3 0 -5 -5 -5 -11z"/>
<path d="M14194 18363 c-39 -7 -35 -63 4 -63 20 0 44 28 40 47 -3 18 -13 22
-44 16z"/>
<path d="M14023 18284 c-17 -7 -16 -36 3 -83 14 -36 14 -42 -1 -70 -8 -17 -11
-31 -6 -31 5 0 12 8 15 17 6 15 10 13 30 -12 13 -16 21 -37 19 -46 -3 -10 8
-37 24 -61 16 -24 32 -51 36 -60 10 -26 27 -22 27 6 0 17 9 29 27 38 42 20 40
45 -6 89 -22 21 -47 39 -56 39 -8 0 -14 3 -14 8 3 19 -2 23 -15 13 -12 -10
-17 -8 -26 8 -11 21 -9 23 19 25 20 1 26 26 7 26 -20 0 -37 34 -34 68 2 21 -2
27 -17 29 -11 1 -26 -1 -32 -3z"/>
<path d="M14277 18113 c3 -7 9 -13 14 -13 5 0 6 -19 3 -42 -3 -26 0 -53 8 -68
15 -29 45 -34 40 -7 -2 10 3 17 14 17 13 0 15 6 9 28 -4 15 -9 40 -11 56 -4
37 -7 39 -48 41 -24 0 -32 -3 -29 -12z"/>
<path d="M13907 17994 c-3 -3 -3 -12 0 -20 3 -8 2 -22 -2 -31 -6 -16 -8 -15
-16 5 -9 24 -31 29 -47 9 -15 -18 0 -38 29 -40 13 0 27 -6 31 -12 5 -6 8 -2 8
9 0 12 5 17 18 14 12 -4 17 2 19 20 1 32 -24 62 -40 46z"/>
<path d="M16598 17730 c2 -22 8 -40 12 -40 5 0 6 -9 3 -20 -3 -11 -10 -20 -15
-20 -6 0 -5 -7 2 -15 9 -11 16 -12 25 -5 7 6 25 7 41 4 23 -4 36 0 57 20 15
14 27 31 26 38 0 12 -124 78 -146 78 -4 0 -7 -18 -5 -40z"/>
<path d="M16385 17751 c-6 -11 13 -26 22 -17 4 3 1 6 -6 6 -7 0 -9 5 -6 10 3
6 4 10 1 10 -3 0 -7 -4 -11 -9z"/>
<path d="M16760 17651 c-14 -10 -36 -21 -50 -24 -14 -4 -45 -24 -70 -46 l-45
-39 -2 -328 c-3 -466 -3 -636 2 -659 2 -11 4 -23 4 -27 1 -5 10 -8 22 -8 11 0
18 4 15 8 -3 5 3 8 12 8 61 0 83 5 79 17 -2 6 0 20 5 30 6 11 5 30 -3 52 -13
36 -1 65 27 65 10 0 11 -6 2 -31 -10 -28 -8 -33 36 -75 39 -37 43 -44 25 -44
-14 0 -19 -5 -17 -17 2 -13 20 -21 68 -30 36 -7 73 -17 83 -23 14 -8 17 -6 17
9 0 24 40 55 53 42 5 -5 10 -21 10 -36 0 -31 36 -50 80 -41 20 4 30 0 39 -14
7 -11 22 -20 34 -20 11 0 24 -3 28 -7 9 -9 141 -44 175 -46 42 -3 34 21 -13
44 -26 12 -49 25 -52 30 -3 5 -13 9 -23 9 -10 0 -25 7 -32 17 -8 9 -52 41 -99
72 -79 52 -83 56 -56 59 18 2 30 11 33 23 11 39 43 15 43 -31 0 -23 36 -50 67
-50 12 0 38 -9 58 -20 20 -11 44 -20 54 -20 10 0 21 -3 25 -7 7 -7 25 -12 59
-17 17 -2 36 -22 37 -36 0 -12 -45 -8 -60 4 -8 7 -30 16 -48 19 l-32 7 16 -26
c12 -18 24 -24 43 -22 16 2 25 -2 24 -9 -2 -7 21 -16 55 -23 31 -6 69 -20 84
-31 30 -21 48 -24 48 -9 0 15 70 12 71 -2 0 -7 4 -4 8 7 7 18 10 16 26 -15 35
-69 54 -81 89 -55 18 14 18 16 3 33 -10 10 -14 21 -11 24 7 8 65 -9 78 -22 17
-17 55 -11 77 11 22 22 35 17 41 -16 2 -14 -3 -21 -19 -23 -26 -4 -22 -25 12
-59 34 -36 70 -45 89 -24 9 10 14 20 11 23 -3 3 8 8 25 11 16 4 30 12 30 19
-1 15 -25 50 -34 49 -18 -2 -23 0 -23 14 0 8 4 16 9 16 4 1 13 2 19 3 18 2 27
38 18 71 -13 43 -11 53 6 31 14 -18 20 -15 16 7 -1 5 9 17 21 27 19 15 20 20
9 34 -7 9 -18 13 -23 10 -5 -3 -8 2 -6 11 2 10 -3 20 -9 22 -15 5 -33 -36 -33
-73 0 -23 -2 -24 -15 -10 -8 8 -24 17 -34 21 -17 5 -18 10 -9 36 5 16 8 36 5
43 -3 8 1 20 9 27 14 11 16 69 3 79 -3 3 -10 20 -14 38 -5 25 -3 32 8 32 10 0
13 7 10 20 -5 19 -8 17 -39 -15 -18 -19 -37 -35 -43 -35 -18 0 0 54 26 83 15
15 23 27 18 27 -5 0 0 6 10 14 19 14 19 15 -8 40 -15 14 -27 30 -27 36 0 5 -7
11 -15 11 -8 1 -19 3 -25 4 -5 1 -17 3 -26 4 -10 1 -14 7 -11 16 4 8 2 17 -3
20 -6 4 -10 15 -10 25 0 25 40 36 79 22 39 -14 50 10 16 36 -31 25 -452 232
-471 232 -4 0 -15 6 -23 14 -18 16 -129 78 -181 102 -19 9 -148 71 -286 140
-137 68 -257 124 -265 124 -8 0 -25 -9 -39 -19z m122 -278 c2 -10 -2 -28 -10
-41 -8 -12 -12 -31 -9 -42 3 -11 2 -22 -2 -25 -12 -7 -16 99 -5 117 9 14 22 9
26 -9z m-11 -165 c-25 -10 -31 -9 -31 7 0 7 8 18 18 24 13 7 18 6 23 -7 4 -11
0 -20 -10 -24z m559 34 c0 -16 -24 -32 -48 -32 -27 0 -21 17 12 30 27 11 36
12 36 2z m-166 -66 c-3 -7 -23 -22 -46 -32 -44 -20 -64 -54 -48 -83 5 -10 31
-29 58 -42 28 -14 62 -39 77 -57 l27 -32 -30 0 c-18 0 -43 11 -62 26 -24 21
-34 24 -43 15 -9 -10 -7 -17 12 -32 16 -13 26 -32 26 -52 1 -18 3 -34 4 -37
10 -21 7 -40 -6 -40 -12 0 -14 -7 -10 -29 4 -19 2 -31 -6 -34 -8 -2 -6 -9 6
-21 14 -15 19 -15 30 -4 6 7 13 20 15 28 2 8 7 17 12 20 5 3 8 14 7 24 -1 10
3 21 10 23 15 5 41 -34 49 -76 6 -31 6 -32 -20 -25 -28 7 -37 -10 -10 -20 21
-8 14 -50 -10 -54 -15 -3 -18 0 -13 17 5 21 -9 32 -31 23 -10 -3 -9 -10 3 -28
8 -13 13 -24 9 -24 -3 0 1 -11 10 -25 20 -31 20 -32 -4 -38 -22 -6 -40 17 -40
49 0 23 -29 54 -49 54 -20 0 -51 53 -51 88 -1 53 -46 76 -72 38 -5 -7 -8 -5
-8 5 0 8 5 20 11 26 15 15 3 33 -21 33 -22 0 -35 -16 -20 -25 5 -3 10 -13 10
-21 0 -9 16 -31 36 -50 l37 -34 -25 -19 c-18 -15 -24 -27 -21 -48 2 -15 -1
-34 -6 -42 -8 -12 -13 -12 -34 2 -13 8 -30 22 -38 29 -8 7 -30 21 -49 31 -62
31 -150 95 -150 108 0 15 43 48 53 42 6 -4 8 0 4 11 -4 10 -7 26 -7 36 0 29
-48 80 -76 80 -13 0 -33 9 -43 19 -20 20 -18 31 6 31 8 0 45 12 81 26 188 72
219 84 247 90 17 3 45 13 64 21 19 8 51 18 73 20 21 3 41 10 44 14 9 15 34 10
28 -5z m168 -138 c-9 -9 -12 -7 -12 12 0 19 3 21 12 12 9 -9 9 -15 0 -24z
m138 -128 c0 -5 -4 -10 -10 -10 -5 0 -10 5 -10 10 0 6 5 10 10 10 6 0 10 -4
10 -10z m-92 -20 c6 0 12 -7 12 -15 0 -8 -9 -15 -20 -15 -18 0 -20 -4 -15 -34
5 -26 3 -36 -11 -44 -16 -9 -17 -11 -1 -27 19 -18 23 -45 7 -45 -14 0 -12 -23
5 -56 8 -16 15 -39 15 -51 0 -12 5 -25 10 -28 17 -10 12 -48 -5 -41 -8 3 -18
-1 -22 -9 -6 -11 -16 -12 -38 -6 -27 7 -30 11 -27 42 2 19 8 40 14 47 8 9 6
12 -7 12 -17 0 -44 26 -45 43 0 4 11 5 24 1 35 -8 49 2 35 28 -8 15 -8 27 0
45 6 13 8 30 4 36 -10 17 -11 49 -2 74 5 14 4 25 -2 29 -17 10 12 25 36 19 11
-2 26 -5 33 -5z m212 -55 c0 -8 -4 -15 -10 -15 -5 0 -10 7 -10 15 0 8 5 15 10
15 6 0 10 -7 10 -15z m-80 -46 c0 -13 -5 -17 -17 -12 -10 3 -3 -9 15 -26 25
-23 31 -35 24 -44 -6 -7 -11 -26 -11 -42 0 -66 -9 -82 -52 -97 -25 -10 -38 5
-44 49 -3 29 -1 44 10 53 9 7 13 21 10 31 -4 11 -2 19 4 19 18 0 12 38 -6 49
-16 9 -15 10 5 11 15 0 26 7 29 19 6 24 33 16 33 -10z m298 22 c7 -4 12 -12
11 -17 -1 -5 3 -22 9 -37 16 -37 15 -42 -4 -62 -14 -13 -14 -18 -2 -32 10 -13
10 -17 1 -20 -9 -3 -10 -10 -3 -22 5 -10 6 -21 3 -25 -3 -3 -1 -6 5 -6 7 0 12
4 12 9 0 5 9 7 20 4 26 -7 27 -43 1 -43 -10 0 -24 6 -30 14 -18 22 -48 8 -58
-27 -6 -21 -18 -35 -36 -41 -35 -13 -55 6 -64 57 -5 34 -4 37 18 38 13 1 27 1
31 1 3 -1 12 5 19 14 7 8 8 14 3 13 -21 -4 -26 2 -14 16 11 13 9 19 -9 36 -12
11 -25 17 -31 14 -5 -3 -9 3 -9 12 1 10 -2 28 -6 40 -6 18 -2 23 19 29 15 3
31 15 37 25 10 20 53 26 77 10z m102 5 c0 -2 -7 -6 -15 -10 -8 -3 -15 -1 -15
4 0 6 7 10 15 10 8 0 15 -2 15 -4z m-30 -80 c0 -2 -7 -6 -15 -10 -8 -3 -15 -1
-15 4 0 6 7 10 15 10 8 0 15 -2 15 -4z m50 -88 c0 -21 -26 -24 -45 -4 -12 12
-11 15 7 19 15 4 19 11 14 24 -5 16 -4 16 9 -1 8 -11 15 -28 15 -38z m-1120
-28 c14 -27 -13 -70 -40 -63 -20 5 -36 46 -19 52 5 1 15 9 22 17 17 18 25 17
37 -6z m816 -33 c-3 -12 -1 -26 5 -33 12 -14 1 -46 -13 -38 -6 4 -6 -2 1 -14
6 -11 17 -22 26 -26 21 -8 19 -38 -2 -34 -10 2 -18 8 -18 13 0 6 -10 20 -22
33 -24 23 -29 51 -14 80 5 9 12 25 15 35 8 25 29 10 22 -16z m-166 -52 c7 -9
10 -18 7 -21 -10 -11 -37 5 -37 21 0 19 14 19 30 0z m403 -26 c6 -22 27 -26
27 -5 0 19 31 15 54 -6 11 -10 24 -18 29 -18 5 0 -1 -16 -13 -35 -12 -19 -17
-35 -12 -35 17 0 6 -33 -15 -47 -18 -12 -21 -11 -26 7 -4 17 -2 20 15 14 14
-4 18 -2 14 5 -4 6 -14 11 -23 11 -9 0 -14 3 -10 6 3 3 1 19 -5 35 -12 34 -37
38 -58 9 -14 -19 -14 -19 -33 1 -23 24 -15 38 10 18 16 -13 17 -12 4 4 -11 14
-11 23 -3 42 13 28 37 25 45 -6z"/>
<path d="M17029 17048 c-15 -11 -15 -13 5 -29 18 -16 19 -18 4 -19 -10 0 -18
-6 -18 -14 0 -19 38 -46 56 -39 8 3 14 1 14 -5 0 -6 9 -8 20 -5 24 6 26 31 4
40 -12 4 -12 8 -3 13 8 6 2 17 -22 39 -38 34 -38 34 -60 19z"/>
<path d="M16958 16733 c-22 -5 -23 -17 -3 -33 21 -18 45 -6 38 19 -3 12 -8 20
-12 20 -3 -1 -14 -3 -23 -6z"/>
<path d="M17855 16609 c-4 -6 -5 -12 -2 -15 2 -3 7 2 10 11 7 17 1 20 -8 4z"/>
<path d="M18064 17643 c-11 -8 -18 -18 -17 -23 3 -11 -30 0 -38 13 -4 6 -13 6
-23 0 -14 -8 -13 -13 13 -37 26 -25 34 -27 71 -21 23 4 51 16 62 27 16 16 22
17 34 7 12 -10 17 -9 27 1 10 10 9 12 -5 7 -10 -4 -18 -2 -18 3 0 6 -12 10
-26 10 -21 0 -24 3 -15 13 15 19 -40 19 -65 0z"/>
<path d="M16313 17335 c4 -8 2 -17 -3 -20 -6 -4 -10 1 -10 10 0 9 -5 13 -11
10 -7 -5 -2 -16 12 -31 16 -17 26 -21 34 -14 16 13 7 60 -12 60 -9 0 -13 -6
-10 -15z"/>
<path d="M14330 17140 c-8 -5 -10 -10 -5 -10 6 0 -1 -9 -15 -20 -14 -11 -20
-20 -13 -20 7 0 10 -6 7 -14 -3 -9 3 -17 16 -21 13 -4 20 -13 18 -23 -4 -20
-61 -24 -125 -8 -38 9 -47 7 -109 -25 -108 -55 -114 -59 -114 -78 0 -10 -9
-25 -21 -32 -13 -9 -18 -20 -14 -31 9 -23 37 -32 50 -16 6 9 27 13 53 13 33
-2 47 3 55 17 16 25 141 77 170 70 4 -1 10 5 13 13 3 8 10 12 15 9 14 -8 81
58 69 70 -16 16 -12 26 11 26 30 0 18 24 -14 28 -14 2 -31 10 -38 18 -10 12
-9 16 9 21 12 3 22 9 22 14 0 12 -21 11 -40 -1z m40 -124 c0 -3 -4 -8 -10 -11
-5 -3 -10 -1 -10 4 0 6 5 11 10 11 6 0 10 -2 10 -4z"/>
<path d="M18065 16810 c3 -5 8 -10 11 -10 2 0 4 5 4 10 0 6 -5 10 -11 10 -5 0
-7 -4 -4 -10z"/>
<path d="M18150 16684 c0 -8 5 -12 10 -9 6 4 8 11 5 16 -9 14 -15 11 -15 -7z"/>
<path d="M18190 16642 c0 -4 10 -9 22 -9 18 -2 20 0 8 7 -18 12 -30 13 -30 2z"/>
<path d="M16596 16470 c-8 -20 -2 -90 7 -91 23 -2 25 10 13 56 -8 31 -16 44
-20 35z"/>
<path d="M16642 16453 c0 -5 -2 -16 -6 -25 -5 -11 -2 -23 8 -33 9 -9 16 -13
16 -9 0 5 5 3 12 -4 15 -15 58 -16 58 -2 0 6 7 10 15 10 18 0 19 8 3 23 -15
14 -50 16 -60 3 -10 -14 -38 13 -31 30 3 8 0 14 -6 14 -6 0 -10 -3 -9 -7z"/>
<path d="M16924 16404 c3 -9 6 -18 6 -20 0 -8 49 -4 55 5 6 11 -26 31 -50 31
-12 0 -15 -5 -11 -16z"/>
<path d="M17143 16392 c-34 -3 -43 -7 -43 -22 0 -10 10 -26 22 -34 37 -26 90
-18 67 10 -7 8 -7 14 1 19 5 3 10 1 10 -6 0 -7 3 -10 6 -6 3 3 0 14 -7 24 -11
13 -25 17 -56 15z"/>
<path d="M17330 16330 c0 -5 5 -10 10 -10 6 0 10 5 10 10 0 6 -4 10 -10 10 -5
0 -10 -4 -10 -10z"/>
<path d="M17385 16332 c-19 -14 -10 -52 18 -76 27 -23 34 -40 20 -49 -5 -2 -3
-3 3 -1 6 1 16 -18 22 -42 7 -25 20 -48 29 -51 17 -7 53 -39 53 -48 0 -2 -7
-2 -15 1 -11 4 -13 2 -9 -9 3 -8 13 -18 22 -21 60 -22 69 -23 87 -10 27 20 58
17 78 -6 20 -24 13 -48 -9 -29 -8 6 -14 8 -14 3 0 -5 -4 -3 -9 5 -11 17 -39
23 -46 10 -8 -12 46 -70 58 -62 5 3 13 -1 18 -8 6 -10 11 -11 19 -3 8 8 8 14
1 18 -5 4 -8 13 -5 21 4 8 10 12 15 9 5 -3 9 2 9 11 0 11 5 15 14 12 10 -4 13
-1 10 7 -10 26 15 26 35 0 19 -25 20 -28 4 -39 -30 -22 -5 -30 89 -27 133 4
125 2 124 37 -1 17 -6 36 -10 44 -16 25 12 37 44 19 17 -9 30 -13 30 -8 0 12
-41 35 -57 32 -7 -2 -13 4 -13 11 0 18 -50 19 -57 1 -2 -7 -11 -10 -19 -7 -10
4 -13 14 -8 38 3 20 1 35 -6 40 -6 4 -8 15 -5 26 5 15 1 19 -17 21 -42 2 -45
3 -62 17 -9 7 -35 16 -59 18 -23 3 -47 9 -53 14 -7 6 -25 11 -40 13 -16 3 -42
9 -57 15 -15 6 -31 10 -35 9 -4 -1 -14 1 -22 4 -8 4 -43 12 -78 18 -34 7 -65
17 -68 21 -6 11 -16 11 -29 1z m224 -151 c-3 -8 -11 -6 -24 4 -11 9 -14 14 -7
10 6 -3 12 -1 12 6 0 10 3 10 11 2 6 -6 10 -16 8 -22z m131 -7 c0 -8 -6 -14
-13 -14 -7 0 -18 -9 -25 -21 -11 -17 -11 -20 0 -14 11 7 11 6 0 -6 -11 -12
-16 -11 -28 6 -14 18 -13 22 17 47 33 28 49 28 49 2z m52 -54 c24 0 45 -39 27
-51 -20 -12 -26 -11 -32 5 -4 9 1 17 11 19 9 3 3 5 -14 6 -18 0 -34 7 -37 15
-7 18 4 29 17 16 5 -5 18 -10 28 -10z m-115 -23 c12 -5 20 -14 17 -19 -3 -4
-1 -8 3 -8 5 0 17 -6 26 -12 16 -12 15 -13 -7 -14 -16 -1 -41 13 -73 42 -43
39 -45 43 -18 33 17 -6 40 -16 52 -22z m-80 -37 c2 -14 -3 -20 -17 -20 -23 0
-24 4 -9 32 12 22 21 18 26 -12z m363 0 c0 -5 -5 -10 -11 -10 -5 0 -7 5 -4 10
3 6 8 10 11 10 2 0 4 -4 4 -10z"/>
<path d="M17023 16230 c5 -30 14 -34 26 -12 8 16 7 21 -5 26 -23 9 -24 8 -21
-14z"/>
<path d="M16685 16230 c3 -5 -1 -10 -7 -13 -7 -3 -1 -10 15 -16 33 -13 53 -6
37 14 -12 14 -53 28 -45 15z"/>
<path d="M17955 16174 c11 -9 19 -20 18 -25 -2 -5 5 -9 15 -10 9 0 31 -3 47
-5 27 -5 28 -4 15 10 -8 9 -38 22 -65 30 -45 14 -48 14 -30 0z"/>
<path d="M16821 16093 c-8 -8 -15 -26 -16 -38 -2 -12 -8 -32 -14 -43 -9 -17
-7 -25 13 -47 24 -26 63 -31 59 -8 -1 6 7 19 17 28 26 24 25 42 -6 87 -30 42
-33 44 -53 21z"/>
<path d="M17925 16100 c-3 -5 -1 -10 4 -10 6 0 11 5 11 10 0 6 -2 10 -4 10 -3
0 -8 -4 -11 -10z"/>
<path d="M18116 16052 c-2 -4 0 -14 5 -22 8 -13 10 -13 19 0 5 8 10 18 10 23
0 10 -28 9 -34 -1z"/>
<path d="M18167 15996 c-3 -7 0 -19 6 -25 6 -6 8 -13 5 -17 -4 -3 -15 3 -25
13 -21 20 -78 29 -88 12 -5 -7 -11 -7 -20 1 -10 8 -15 8 -21 -1 -4 -8 -3 -9 5
-5 6 4 14 0 17 -11 12 -38 28 -63 40 -63 7 0 14 -6 17 -12 2 -7 11 2 21 20 9
17 19 32 22 32 3 0 2 -6 -2 -12 -6 -10 -4 -10 7 0 7 6 21 12 31 12 10 0 18 7
18 16 0 12 6 15 23 11 22 -6 22 -6 2 9 -12 9 -21 11 -23 4 -2 -5 -8 -8 -12 -5
-5 3 -7 12 -3 20 3 8 1 15 -5 15 -5 0 -12 -6 -15 -14z"/>
<path d="M17750 15930 c20 -13 33 -13 25 0 -3 6 -14 10 -23 10 -15 0 -15 -2
-2 -10z"/>
<path d="M17390 15847 c0 -13 6 -24 13 -24 9 0 12 9 9 24 -2 13 -8 23 -13 23
-5 0 -9 -10 -9 -23z"/>
<path d="M17261 15269 c-18 -7 -22 -15 -18 -34 2 -14 1 -28 -4 -31 -4 -2 -5
-12 -2 -21 4 -11 3 -14 -5 -9 -7 4 -12 1 -12 -8 0 -17 21 -16 44 3 14 12 16
11 10 -5 -6 -18 -6 -18 11 -3 14 14 16 25 8 67 -8 47 -9 49 -32 41z"/>
<path d="M17250 15130 c-13 -8 -12 -10 3 -10 9 0 17 5 17 10 0 12 -1 12 -20 0z"/>
<path d="M17077 15082 c1 -8 3 -18 3 -23 0 -5 7 -9 15 -9 13 0 13 -4 3 -22 -7
-13 -17 -26 -22 -29 -4 -4 -3 -16 3 -28 10 -18 19 -21 54 -18 23 2 51 8 62 12
16 5 17 5 5 -4 -11 -8 -11 -11 -2 -11 23 0 26 31 3 46 -24 17 -53 68 -44 77 3
4 -6 12 -20 18 -20 9 -30 9 -41 0 -8 -6 -16 -8 -18 -4 -3 4 -3 2 -1 -5z"/>
<path d="M17337 15024 c-4 -4 -7 -14 -7 -23 0 -11 3 -12 11 -4 6 6 10 16 7 23
-2 6 -7 8 -11 4z"/>
<path d="M17300 14989 c0 -5 5 -7 10 -4 6 3 10 8 10 11 0 2 -4 4 -10 4 -5 0
-10 -5 -10 -11z"/>
<path d="M17250 14965 c7 -8 17 -12 22 -9 6 4 5 10 -3 15 -22 14 -33 10 -19
-6z"/>
<path d="M17240 14935 c0 -2 9 -9 20 -15 16 -9 18 -8 14 5 -5 13 -34 22 -34
10z"/>
<path d="M17414 14924 c3 -9 6 -18 6 -20 0 -3 4 -3 10 1 11 7 2 35 -12 35 -6
0 -7 -7 -4 -16z"/>
<path d="M17670 14889 c0 -5 5 -7 10 -4 6 3 10 8 10 11 0 2 -4 4 -10 4 -5 0
-10 -5 -10 -11z"/>
<path d="M17402 14781 c-26 -16 -9 -46 27 -49 30 -3 33 -2 22 12 -7 8 -10 19
-7 25 3 5 -1 12 -10 15 -19 7 -16 8 -32 -3z"/>
<path d="M14935 14634 c5 -11 8 -29 8 -42 -1 -34 39 -26 51 10 11 33 11 34
-33 43 -31 7 -33 5 -26 -11z"/>
<path d="M14975 14538 c-6 -16 20 -93 32 -93 13 0 15 75 2 91 -14 17 -28 18
-34 2z"/>
<path d="M15107 14423 c-6 -12 13 -73 23 -73 17 0 19 17 7 49 -11 30 -22 39
-30 24z"/>
<path d="M14945 14400 c3 -5 8 -10 11 -10 2 0 4 5 4 10 0 6 -5 10 -11 10 -5 0
-7 -4 -4 -10z"/>
<path d="M15170 14406 c0 -2 7 -7 16 -10 8 -3 12 -2 9 4 -6 10 -25 14 -25 6z"/>
<path d="M15093 14324 c-6 -16 19 -44 39 -44 15 0 20 30 8 45 -16 20 -39 19
-47 -1z"/>
<path d="M16765 14260 c-8 -13 -1 -24 14 -19 6 3 7 10 2 18 -6 10 -10 10 -16
1z"/>
<path d="M16780 14090 c0 -5 5 -10 11 -10 5 0 7 5 4 10 -3 6 -8 10 -11 10 -2
0 -4 -4 -4 -10z"/>
<path d="M16792 14048 c4 -31 32 -29 35 2 1 14 0 19 -3 13 -3 -7 -10 -13 -15
-13 -6 0 -7 5 -4 10 3 6 1 10 -5 10 -6 0 -10 -10 -8 -22z"/>
<path d="M16001 13802 c-8 -14 -6 -18 10 -19 13 -1 19 5 19 18 0 24 -16 25
-29 1z"/>
<path d="M14788 13743 c6 -2 18 -2 25 0 6 3 1 5 -13 5 -14 0 -19 -2 -12 -5z"/>
<path d="M15995 13740 c4 -6 11 -8 16 -5 14 9 11 15 -7 15 -8 0 -12 -5 -9 -10z"/>
<path d="M14698 13673 c6 -2 18 -2 25 0 6 3 1 5 -13 5 -14 0 -19 -2 -12 -5z"/>
<path d="M14740 13628 c-20 -7 -22 -11 -10 -18 23 -14 50 -12 50 4 0 21 -11
25 -40 14z"/>
<path d="M15755 13500 c-3 -5 1 -10 9 -10 9 0 16 5 16 10 0 6 -4 10 -9 10 -6
0 -13 -4 -16 -10z"/>
<path d="M15326 13161 c-19 -21 -14 -27 27 -35 15 -3 36 -8 47 -11 17 -5 20
-2 18 19 -2 17 -8 26 -20 26 -9 0 -20 5 -23 10 -10 16 -30 12 -49 -9z"/>
<path d="M15655 13070 c3 -5 17 -10 31 -10 13 0 24 5 24 10 0 6 -14 10 -31 10
-17 0 -28 -4 -24 -10z"/>
<path d="M15160 12980 c0 -5 5 -10 11 -10 5 0 7 5 4 10 -3 6 -8 10 -11 10 -2
0 -4 -4 -4 -10z"/>
<path d="M14427 12476 c-3 -8 1 -17 8 -20 20 -7 28 9 11 23 -10 9 -15 8 -19
-3z"/>
<path d="M14332 12468 c-7 -7 -12 -21 -12 -32 1 -18 3 -17 16 7 17 31 15 44
-4 25z"/>
<path d="M14268 12363 c7 -3 16 -2 19 1 4 3 -2 6 -13 5 -11 0 -14 -3 -6 -6z"/>
<path d="M14254 12320 c-4 -16 -10 -30 -15 -30 -13 0 -11 -34 2 -47 15 -15 69
4 69 23 0 8 5 14 11 14 6 0 3 7 -5 16 -9 8 -16 24 -16 35 0 33 -39 24 -46 -11z"/>
<path d="M13783 11425 c-19 -15 -20 -14 30 -29 17 -5 19 31 2 38 -7 2 -21 -1
-32 -9z"/>
<path d="M14299 11363 c0 -5 -2 -15 -4 -24 -2 -12 3 -15 22 -11 23 4 23 5 7
23 -19 21 -24 23 -25 12z"/>
<path d="M13707 11272 c-8 -9 -17 -24 -19 -32 -2 -8 -13 -26 -25 -40 -23 -25
-32 -57 -13 -45 6 3 10 2 10 -4 0 -5 11 -8 25 -5 17 3 27 -1 31 -11 9 -22 34
0 34 29 -1 25 -22 56 -39 56 -8 0 -4 11 9 29 22 32 12 51 -13 23z"/>
<path d="M14307 11247 c-21 -16 -16 -51 9 -56 10 -2 16 0 12 4 -4 4 -3 15 2
24 13 25 -2 44 -23 28z"/>
<path d="M13936 11234 c-5 -14 -4 -15 9 -4 17 14 19 20 6 20 -5 0 -12 -7 -15
-16z"/>
<path d="M14090 11191 c-8 -6 -17 -8 -21 -6 -3 3 -15 -5 -25 -16 -19 -21 -19
-21 21 -13 37 6 54 18 55 37 0 10 -12 9 -30 -2z"/>
<path d="M14125 11150 c3 -5 10 -10 16 -10 5 0 9 5 9 10 0 6 -7 10 -16 10 -8
0 -12 -4 -9 -10z"/>
<path d="M14300 11146 c-5 -5 -10 -16 -10 -22 0 -14 35 -28 49 -20 13 8 43
-23 35 -36 -4 -6 0 -14 7 -19 20 -13 29 -11 29 6 0 8 6 15 13 15 7 0 22 7 33
15 16 12 16 14 2 9 -11 -4 -20 0 -24 9 -15 39 -108 69 -134 43z"/>
<path d="M14465 11126 c-18 -13 -18 -14 8 -9 15 3 27 9 27 14 0 13 -13 11 -35
-5z"/>
<path d="M13602 11078 c-18 -28 -31 -56 -29 -62 2 -6 9 0 17 14 7 14 25 36 39
50 15 14 26 31 23 38 -6 20 -16 13 -50 -40z"/>
<path d="M14150 11122 c0 -5 7 -13 16 -16 10 -4 14 -1 12 6 -5 15 -28 23 -28
10z"/>
<path d="M14230 11110 c0 -12 28 -21 35 -11 2 5 -4 11 -15 14 -11 3 -20 2 -20
-3z"/>
<path d="M14190 11020 c0 -5 9 -10 20 -10 11 0 20 5 20 10 0 6 -9 10 -20 10
-11 0 -20 -4 -20 -10z"/>
<path d="M14460 10999 c0 -5 5 -7 10 -4 6 3 10 8 10 11 0 2 -4 4 -10 4 -5 0
-10 -5 -10 -11z"/>
<path d="M14500 10779 c0 -5 -4 -7 -10 -4 -6 3 -7 -1 -4 -10 4 -9 12 -14 18
-12 15 5 21 37 7 37 -6 0 -11 -5 -11 -11z"/>
<path d="M14276 10708 c3 -5 9 -7 12 -4 3 3 12 0 21 -6 13 -10 14 -10 4 2 -15
16 -46 23 -37 8z"/>
<path d="M14174 10668 c-2 -4 3 -11 11 -16 14 -7 13 -11 -5 -34 l-20 -27 22
-15 c13 -9 22 -20 20 -24 -2 -4 4 -8 13 -10 10 -2 17 6 21 27 4 17 9 31 13 32
40 5 60 19 61 42 0 7 -16 11 -32 8 -5 0 -8 5 -8 12 0 14 -88 19 -96 5z m71
-48 c3 -5 1 -10 -4 -10 -6 0 -11 5 -11 10 0 6 2 10 4 10 3 0 8 -4 11 -10z"/>
<path d="M14330 10659 c0 -5 5 -7 10 -4 6 3 10 8 10 11 0 2 -4 4 -10 4 -5 0
-10 -5 -10 -11z"/>
<path d="M14329 10567 c-24 -18 -34 -57 -15 -57 9 0 16 4 16 10 0 5 6 7 13 4
18 -7 39 20 31 40 -7 19 -23 20 -45 3z"/>
<path d="M13360 10540 c0 -6 7 -10 15 -10 8 0 15 2 15 4 0 2 -7 6 -15 10 -8 3
-15 1 -15 -4z"/>
<path d="M14262 10523 c-25 -31 -27 -44 -10 -61 7 -7 10 -12 8 -13 -3 0 -13
-2 -22 -4 -11 -2 -15 2 -11 11 3 8 0 14 -7 14 -8 0 -10 -8 -6 -23 4 -16 -1
-26 -14 -35 -11 -7 -17 -18 -14 -27 3 -8 1 -28 -4 -45 -6 -16 -7 -30 -2 -30 5
0 10 -12 12 -27 3 -25 8 -28 41 -30 38 -2 82 25 68 43 -13 18 -51 35 -51 23 0
-8 -7 -6 -18 4 -26 23 -23 45 6 52 18 4 21 9 13 19 -9 11 -6 15 14 20 29 7 49
0 40 -15 -12 -18 5 -28 30 -17 13 6 22 15 19 19 -3 5 0 9 5 9 6 0 11 -7 11
-16 0 -9 7 -14 18 -12 11 2 17 13 17 32 0 24 -5 31 -29 37 -15 4 -37 16 -48
26 -11 10 -23 18 -27 18 -3 0 -6 10 -6 22 -1 34 -9 35 -33 6z"/>
<path d="M13328 10533 c-10 -2 -18 -8 -18 -13 0 -4 -9 -10 -20 -13 -11 -3 -20
-12 -20 -19 0 -25 -47 -103 -60 -100 -7 2 -9 -5 -5 -17 3 -11 1 -22 -4 -25 -6
-4 -8 -13 -4 -21 3 -8 0 -15 -6 -15 -6 0 -11 -7 -11 -15 0 -17 18 -19 40 -5
11 7 11 10 2 10 -7 0 -10 5 -7 11 4 6 13 8 20 5 22 -8 65 32 65 62 0 29 44
125 53 115 3 -3 11 -2 18 3 9 5 6 10 -10 16 -12 4 -19 12 -16 18 3 5 5 9 3 9
-2 -1 -11 -3 -20 -6z"/>
<path d="M14397 10506 c-3 -8 -3 -17 0 -20 7 -7 33 13 33 25 0 15 -27 10 -33
-5z"/>
<path d="M14424 10459 c-4 -7 1 -18 11 -26 27 -19 37 -16 33 9 -3 25 -32 36
-44 17z"/>
<path d="M14013 10416 c0 -11 5 -13 19 -5 14 7 18 6 18 -5 0 -16 33 -39 43
-30 3 3 19 -8 35 -25 16 -17 32 -31 36 -31 3 0 5 18 4 39 -1 35 -4 39 -26 36
-14 -1 -31 5 -40 16 -12 14 -19 16 -29 7 -9 -7 -13 -7 -13 1 0 6 -10 11 -23
11 -14 0 -24 -6 -24 -14z"/>
<path d="M14315 10310 c-3 -5 1 -10 10 -10 9 0 13 5 10 10 -3 6 -8 10 -10 10
-2 0 -7 -4 -10 -10z"/>
<path d="M13285 9840 c3 -5 8 -10 11 -10 2 0 4 5 4 10 0 6 -5 10 -11 10 -5 0
-7 -4 -4 -10z"/>
<path d="M14432 9758 c2 -6 10 -14 16 -16 7 -2 10 2 6 12 -7 18 -28 22 -22 4z"/>
<path d="M14010 9722 c0 -6 -18 -13 -40 -17 -51 -9 -56 -18 -24 -44 31 -25 60
-15 70 24 3 14 11 22 16 19 6 -4 9 -1 6 6 -5 17 -28 26 -28 12z"/>
<path d="M14064 9578 c-7 -10 20 -38 38 -38 15 0 8 38 -8 44 -21 8 -22 8 -30
-6z"/>
<path d="M14160 9499 c0 -5 5 -7 10 -4 6 3 10 8 10 11 0 2 -4 4 -10 4 -5 0
-10 -5 -10 -11z"/>
<path d="M11196 17254 c-7 -19 2 -37 15 -29 12 8 12 45 0 45 -5 0 -12 -7 -15
-16z"/>
<path d="M11230 17172 c0 -8 5 -10 13 -5 6 4 15 8 19 8 3 0 10 3 14 8 4 4 -5
6 -19 5 -15 -1 -27 -8 -27 -16z"/>
<path d="M12166 16946 c3 -9 11 -16 16 -16 13 0 5 23 -10 28 -7 2 -10 -2 -6
-12z"/>
<path d="M12120 16890 c0 -5 9 -10 21 -10 11 0 17 5 14 10 -3 6 -13 10 -21 10
-8 0 -14 -4 -14 -10z"/>
<path d="M11418 16879 c-22 -12 -23 -29 -3 -29 8 0 19 9 25 20 12 22 4 25 -22
9z"/>
<path d="M11349 16785 c-1 -6 -1 -13 0 -17 0 -5 -5 -8 -11 -8 -8 0 -5 -7 6
-15 26 -20 33 -19 31 5 -1 21 -24 51 -26 35z"/>
<path d="M12237 16681 c-29 -11 -25 -25 8 -31 17 -4 29 -11 28 -16 -1 -5 7
-11 18 -11 20 -2 20 -1 2 29 -20 35 -30 40 -56 29z"/>
<path d="M11485 16510 c4 -6 11 -8 16 -5 14 9 11 15 -7 15 -8 0 -12 -5 -9 -10z"/>
<path d="M11706 16386 c-8 -41 -27 -59 -58 -55 -13 2 -29 0 -35 -4 -8 -5 -13
-4 -13 2 0 6 -4 11 -10 11 -13 0 -13 -53 1 -67 8 -8 8 -17 0 -32 -7 -12 -8
-21 -2 -21 5 0 12 -13 16 -30 5 -21 13 -30 26 -30 20 0 59 28 59 43 0 9 26 38
35 37 20 -1 25 1 25 11 0 6 9 24 20 40 l21 28 -21 13 c-14 9 -20 23 -20 50 0
31 -4 38 -19 38 -13 0 -21 -10 -25 -34z"/>
<path d="M12090 16410 c0 -4 -7 -7 -16 -6 -27 2 -26 -37 1 -50 21 -10 26 -9
40 12 20 31 19 41 -5 47 -11 3 -20 2 -20 -3z"/>
<path d="M11241 16386 c-11 -13 -9 -113 4 -191 7 -44 7 -123 0 -156 -10 -42 2
-71 28 -67 20 3 22 8 20 56 -2 32 2 52 8 52 6 0 9 -7 5 -15 -3 -8 -2 -15 3
-15 12 0 35 -76 28 -94 -4 -9 -2 -16 3 -16 6 0 10 -5 10 -10 0 -6 10 -21 21
-33 12 -12 19 -16 15 -9 -4 7 -1 15 8 18 13 5 15 17 10 63 -8 66 -19 91 -41
91 -12 0 -14 7 -10 37 6 32 2 40 -28 68 -34 31 -45 67 -24 80 16 10 8 76 -13
107 -10 14 -18 31 -18 37 0 15 -15 14 -29 -3z m57 -258 c15 -15 16 -28 2 -28
-5 0 -10 7 -10 16 0 8 -4 12 -10 9 -5 -3 -10 -1 -10 4 0 14 13 14 28 -1z"/>
<path d="M11817 16374 c-8 -8 1 -24 13 -24 4 0 10 7 14 15 5 15 -14 21 -27 9z"/>
<path d="M12548 16339 c-3 -13 -9 -32 -13 -41 -5 -14 -2 -18 15 -18 11 0 19 4
15 9 -3 5 -1 12 5 16 13 8 13 18 -4 40 -12 17 -13 17 -18 -6z"/>
<path d="M10420 16281 c0 -5 7 -14 15 -21 16 -14 18 -10 9 14 -6 17 -24 22
-24 7z"/>
<path d="M10596 16161 c-6 -10 30 -41 38 -34 3 4 6 12 6 19 0 13 -38 26 -44
15z"/>
<path d="M11310 15943 c0 -13 5 -23 10 -23 13 0 13 11 0 30 -8 12 -10 11 -10
-7z"/>
<path d="M10613 15933 c-18 -7 -16 -30 3 -37 24 -9 34 -7 34 8 0 18 -22 35
-37 29z"/>
<path d="M10567 15916 c-3 -8 1 -17 9 -20 9 -4 14 1 14 14 0 23 -15 27 -23 6z"/>
<path d="M10736 15913 c-4 -4 -15 -8 -24 -8 -13 0 -16 -8 -15 -30 1 -16 7 -31
12 -33 5 -2 7 -11 4 -22 -4 -15 2 -21 28 -28 34 -9 68 -4 52 7 -4 3 -9 19 -10
35 -1 16 -9 36 -17 45 -8 9 -15 20 -14 24 0 13 -8 18 -16 10z"/>
<path d="M12060 15896 c-7 -9 -28 -16 -46 -16 -24 0 -34 -5 -34 -15 0 -8 7
-15 16 -15 12 0 15 -6 10 -24 -3 -14 -1 -27 7 -33 17 -12 70 -8 75 6 2 6 10
17 17 25 7 7 15 28 17 47 3 30 0 34 -23 37 -14 2 -31 -4 -39 -12z"/>
<path d="M11320 15885 c0 -9 5 -15 11 -13 6 2 11 8 11 13 0 5 -5 11 -11 13 -6
2 -11 -4 -11 -13z"/>
<path d="M10375 15871 c-6 -11 9 -23 19 -14 9 9 7 23 -3 23 -6 0 -12 -4 -16
-9z"/>
<path d="M11244 15856 c-9 -39 -1 -61 25 -64 22 -4 23 -2 16 35 -4 21 -9 41
-11 45 -10 15 -24 8 -30 -16z"/>
<path d="M11700 15860 c0 -5 7 -10 16 -10 8 0 12 5 9 10 -3 6 -10 10 -16 10
-5 0 -9 -4 -9 -10z"/>
<path d="M10419 15857 c-8 -24 -4 -36 16 -39 17 -4 21 -1 18 13 -4 14 -31 35
-34 26z"/>
<path d="M11386 15785 c-9 -13 -16 -35 -16 -48 0 -29 -21 -50 -42 -42 -19 7
-29 -25 -16 -49 5 -9 6 -21 2 -27 -7 -12 12 -29 33 -29 6 0 14 8 17 18 4 10
24 29 46 43 22 13 40 27 40 32 0 4 9 7 20 7 22 0 27 19 9 37 -8 8 -7 16 2 31
18 28 -4 56 -32 41 -13 -6 -19 -6 -19 1 0 19 -28 10 -44 -15z m5 -118 c-11
-11 -24 -18 -28 -14 -4 4 4 18 18 31 29 28 40 12 10 -17z"/>
<path d="M10600 15750 c0 -5 5 -10 11 -10 5 0 7 5 4 10 -3 6 -8 10 -11 10 -2
0 -4 -4 -4 -10z"/>
<path d="M11899 15458 c-7 -24 -5 -38 6 -38 8 0 17 5 20 10 8 13 25 3 25 -16
0 -10 -7 -13 -24 -8 -19 4 -26 0 -40 -29 -22 -47 -21 -60 4 -52 12 4 27 1 35
-5 11 -9 15 -9 15 -1 0 6 -4 11 -10 11 -18 0 -10 22 10 27 11 3 20 14 20 25 0
10 4 17 9 13 6 -3 15 3 20 14 8 14 7 22 -4 31 -12 10 -15 10 -15 -1 -1 -10 -4
-9 -14 4 -11 14 -54 25 -57 15z"/>
<path d="M11264 15408 c-11 -17 -13 -37 -17 -157 l-4 -103 34 -14 c34 -14 60
-18 233 -30 52 -3 118 -12 147 -19 61 -16 85 -11 98 18 8 17 17 21 40 19 37
-4 105 -34 126 -55 20 -20 136 -25 197 -8 25 7 49 8 60 2 29 -14 87 -31 110
-31 12 0 22 -4 22 -9 0 -5 30 -12 68 -15 37 -4 92 -9 122 -12 54 -6 67 2 19
11 -35 6 -208 45 -254 56 -22 6 -56 12 -76 14 -20 2 -54 11 -75 19 -22 8 -60
17 -86 21 -27 3 -48 11 -48 16 0 13 38 51 110 108 49 40 112 100 107 102 -20
8 -41 4 -55 -10 -9 -9 -35 -30 -57 -46 -22 -16 -43 -33 -46 -37 -11 -17 -81
-49 -95 -44 -7 3 -27 -2 -44 -10 -17 -9 -38 -13 -48 -9 -14 6 -13 9 11 21 15
8 27 19 27 24 0 15 -11 12 -32 -7 -17 -15 -20 -15 -43 7 -22 20 -28 22 -47 11
-13 -7 -31 -29 -41 -49 -19 -36 -19 -37 2 -53 13 -11 17 -20 11 -24 -12 -7
-66 0 -104 15 -15 5 -39 10 -54 10 -39 1 -69 25 -53 44 7 8 13 28 13 45 1 17
8 37 16 43 23 19 34 58 21 74 -18 22 -47 17 -51 -8 -2 -13 -9 -22 -16 -20 -6
1 -12 -2 -12 -8 0 -16 -33 -50 -62 -66 -16 -8 -29 -26 -33 -44 -7 -32 -19 -33
-28 0 -3 11 0 18 6 17 6 -1 13 7 15 18 2 11 16 34 30 50 21 25 22 30 8 33 -9
2 -16 10 -16 18 0 19 38 56 50 49 6 -4 10 0 10 9 0 18 -19 16 -53 -7 -32 -21
-67 -22 -67 -3 0 8 -14 19 -31 25 -41 14 -56 14 -65 -1z"/>
<path d="M11607 15403 c-13 -12 -7 -33 8 -33 8 0 15 9 15 20 0 20 -11 26 -23
13z"/>
<path d="M11931 15300 c-21 -18 -22 -20 -4 -20 11 0 28 9 38 20 24 27 -1 27
-34 0z"/>
<path d="M11623 15193 c9 -2 23 -2 30 0 6 3 -1 5 -18 5 -16 0 -22 -2 -12 -5z"/>
<path d="M11230 14498 c0 -19 2 -20 10 -8 13 19 13 30 0 30 -5 0 -10 -10 -10
-22z"/>
<path d="M11220 14270 c0 -5 -3 -16 -6 -25 -5 -13 -2 -15 22 -9 30 7 51 20 43
28 -9 9 -59 14 -59 6z"/>
<path d="M10616 14018 c-7 -27 26 -57 62 -58 25 0 24 3 -12 53 -24 33 -42 35
-50 5z"/>
<path d="M11221 14026 c-12 -14 -28 -128 -27 -181 1 -25 5 -29 24 -27 23 3 31
-13 10 -20 -9 -3 -8 -12 5 -31 21 -32 36 -34 70 -7 21 17 27 18 34 7 4 -8 22
-17 38 -21 19 -4 25 -3 16 2 -10 7 -10 11 -1 14 10 3 10 8 0 25 -11 17 -18 19
-38 12 -19 -7 -29 -6 -43 7 -21 19 -25 34 -9 34 6 0 10 -7 10 -16 0 -8 5 -12
11 -9 6 4 8 9 5 12 -7 7 38 43 54 43 7 0 21 -11 32 -25 11 -14 26 -25 33 -25
26 0 65 -23 65 -39 0 -12 -3 -11 -14 4 -16 22 -46 14 -46 -14 0 -23 18 -32 43
-19 12 6 17 5 17 -4 0 -20 -32 -44 -52 -40 -13 2 -16 -1 -12 -12 3 -9 1 -16
-5 -16 -6 0 -11 5 -11 10 0 6 -7 10 -15 10 -8 0 -15 -3 -15 -7 0 -12 53 -63
65 -63 7 0 20 -9 30 -20 21 -23 70 -27 79 -5 3 10 -1 15 -12 15 -16 1 -15 1 1
11 13 7 22 7 31 0 7 -6 15 -8 19 -5 3 3 14 -3 24 -13 11 -10 33 -30 49 -44 16
-14 38 -39 49 -55 11 -15 27 -35 36 -44 8 -9 18 -24 22 -34 4 -9 19 -21 34
-27 29 -10 73 -64 73 -90 1 -19 24 -49 40 -49 7 0 10 -7 6 -16 -4 -10 11 -33
47 -68 29 -29 51 -58 49 -64 -2 -6 1 -17 7 -24 33 -39 71 -92 71 -99 0 -4 -4
-11 -10 -14 -19 -12 -10 -25 13 -20 12 3 36 7 52 10 17 2 50 9 75 14 25 5 48
7 51 5 4 -2 9 5 12 17 4 13 0 22 -10 26 -9 4 -66 58 -127 122 -61 63 -176 180
-256 261 -80 80 -210 213 -290 295 -80 83 -162 161 -182 175 -21 14 -38 29
-38 34 0 5 -12 19 -27 32 -16 13 -24 24 -18 24 5 0 -1 7 -13 16 -22 15 -25 15
-43 -2 -17 -16 -22 -16 -29 -4 -6 8 -10 17 -10 20 0 3 -9 11 -19 17 -15 10
-22 9 -30 -1z"/>
<path d="M10280 13960 c0 -5 5 -10 11 -10 5 0 7 5 4 10 -3 6 -8 10 -11 10 -2
0 -4 -4 -4 -10z"/>
<path d="M10012 13949 c2 -6 8 -10 13 -10 5 0 11 4 13 10 2 6 -4 11 -13 11 -9
0 -15 -5 -13 -11z"/>
<path d="M9864 13935 c-10 -8 -14 -15 -8 -15 6 0 17 7 24 15 16 19 9 19 -16 0z"/>
<path d="M10727 13931 c2 -9 -6 -22 -18 -29 -18 -11 -24 -11 -40 4 -18 16 -19
16 -19 -4 0 -24 -17 -38 -41 -34 -9 2 -22 -4 -29 -13 -10 -12 -9 -16 4 -21 9
-3 16 -12 16 -20 0 -8 3 -13 8 -12 4 1 18 -4 32 -11 14 -9 25 -10 27 -4 2 6
14 8 27 6 13 -3 27 0 30 6 4 6 0 11 -8 11 -8 0 -28 11 -43 25 -22 20 -25 27
-14 34 14 9 79 -4 96 -20 5 -5 19 -9 32 -9 13 0 28 -9 35 -20 7 -11 17 -20 22
-20 5 0 31 -14 58 -31 34 -22 47 -36 43 -48 -6 -19 17 -35 64 -46 l34 -7 -23
33 c-32 47 -101 110 -160 145 -28 16 -48 34 -45 42 2 6 -3 12 -11 12 -8 0 -12
5 -9 10 3 6 0 10 -7 10 -7 0 -25 6 -39 14 -24 12 -26 12 -22 -3z"/>
<path d="M10266 13924 c-10 -26 -7 -34 14 -34 11 0 20 4 20 9 0 5 3 16 6 25 4
11 0 16 -14 16 -11 0 -23 -7 -26 -16z"/>
<path d="M9944 13918 c1 -7 5 -19 9 -25 5 -7 5 -17 2 -23 -4 -6 13 -10 44 -10
28 0 51 2 51 4 0 7 -90 66 -100 66 -4 0 -7 -6 -6 -12z"/>
<path d="M10370 13910 c0 -11 0 -23 0 -27 0 -5 8 -8 18 -8 9 0 20 -4 24 -10
14 -18 8 -35 -11 -35 -28 0 -36 -19 -17 -38 15 -15 16 -15 16 1 0 10 4 16 9
12 5 -3 12 -1 16 5 4 6 10 8 14 6 4 -3 14 4 22 15 8 12 24 33 36 47 25 29 31
51 10 34 -14 -12 -58 -7 -88 8 -29 16 -49 12 -49 -10z"/>
<path d="M10570 13918 c0 -4 11 -8 25 -8 14 0 25 -5 25 -12 0 -6 3 -8 6 -5 11
11 -16 36 -37 34 -10 -1 -19 -5 -19 -9z"/>
<path d="M10060 13820 c-23 -18 -23 -20 -5 -20 11 0 34 9 50 20 30 20 30 20 5
20 -14 0 -36 -9 -50 -20z"/>
<path d="M11340 13828 c0 -4 9 -8 20 -8 11 0 20 4 20 8 0 4 -9 8 -20 8 -11 0
-20 -4 -20 -8z"/>
<path d="M10423 13713 c-13 -2 -23 -8 -23 -12 0 -4 -19 -7 -42 -6 -25 1 -51
-5 -60 -14 -33 -26 -21 -37 41 -37 70 -1 120 -26 101 -50 -10 -11 -9 -15 4
-20 9 -3 17 -16 17 -28 1 -15 3 -16 6 -4 5 21 30 31 39 16 5 -7 2 -8 -5 -3 -9
5 -12 2 -9 -11 2 -14 13 -18 48 -18 25 -1 51 3 57 7 8 6 15 4 19 -7 8 -22 31
-20 44 4 6 11 20 20 31 20 18 0 20 5 16 35 -6 45 -24 67 -48 60 -13 -4 -19 -1
-19 9 0 17 -73 41 -96 32 -18 -7 -31 -39 -17 -43 5 -2 18 -10 28 -17 15 -11
16 -15 4 -34 -15 -25 -40 -28 -68 -10 -18 11 -18 14 -5 39 7 15 11 36 7 46 -7
21 -34 54 -42 52 -3 -1 -16 -4 -28 -6z"/>
<path d="M11235 13710 c-13 -20 43 -36 61 -17 4 4 16 7 27 7 11 0 17 3 13 7
-10 10 -95 12 -101 3z"/>
<path d="M11247 13650 c-4 -17 -1 -21 16 -18 25 3 30 31 6 36 -10 2 -19 -6
-22 -18z"/>
<path d="M11615 13579 c-10 -15 1 -23 20 -15 9 3 13 10 10 16 -8 13 -22 13
-30 -1z"/>
<path d="M10799 13543 c-2 -6 -17 -16 -34 -24 -38 -18 -38 -40 -1 -50 15 -4
36 -15 45 -23 10 -9 32 -19 50 -22 26 -5 32 -11 28 -26 -5 -18 -2 -19 36 -13
47 8 77 21 77 35 0 5 -12 7 -27 6 -30 -4 -56 11 -47 25 3 5 -4 21 -15 35 -12
15 -21 32 -21 39 0 6 -6 12 -12 13 -7 1 -27 4 -44 8 -18 3 -33 2 -35 -3z"/>
<path d="M10300 13520 c0 -5 -8 -10 -17 -10 -15 0 -15 -3 4 -21 25 -25 43 -18
41 16 -2 23 -28 37 -28 15z"/>
<path d="M10969 13519 c-12 -7 -11 -11 3 -25 14 -15 18 -15 38 -1 12 8 18 17
13 19 -23 13 -41 15 -54 7z"/>
<path d="M11115 13469 c-16 -4 -25 -7 -18 -8 6 0 19 -8 28 -17 17 -18 45 -12
45 10 0 19 -18 24 -55 15z"/>
<path d="M10590 13435 c0 -8 7 -15 15 -15 8 0 15 7 15 15 0 8 -7 15 -15 15 -8
0 -15 -7 -15 -15z"/>
<path d="M10130 13430 c-24 -15 10 -42 58 -44 55 -3 63 24 12 41 -42 15 -51
16 -70 3z"/>
<path d="M10571 13379 l-34 -21 24 -12 c13 -7 25 -8 27 -4 2 4 14 5 26 2 26
-6 51 18 42 41 -8 21 -45 19 -85 -6z"/>
<path d="M10236 13375 c-5 -13 13 -25 40 -25 22 0 16 16 -10 28 -19 8 -25 8
-30 -3z"/>
<path d="M11184 13377 c-3 -9 -4 -23 -2 -32 3 -14 5 -13 20 4 14 17 15 21 2
31 -11 10 -15 9 -20 -3z"/>
<path d="M10616 13193 c-12 -12 -5 -23 14 -23 11 0 20 4 20 9 0 11 -26 22 -34
14z"/>
<path d="M10730 13129 c0 -18 25 -37 36 -27 8 8 -7 36 -22 42 -9 4 -14 -1 -14
-15z"/>
<path d="M11136 13072 c-2 -4 4 -9 15 -9 10 -1 19 2 19 8 0 11 -27 12 -34 1z"/>
<path d="M11150 13025 c0 -13 64 -75 79 -75 11 0 4 12 -24 40 -36 36 -55 48
-55 35z"/>
<path d="M11695 12950 c3 -5 8 -10 11 -10 2 0 4 5 4 10 0 6 -5 10 -11 10 -5 0
-7 -4 -4 -10z"/>
<path d="M11765 12949 c-10 -15 3 -25 16 -12 7 7 7 13 1 17 -6 3 -14 1 -17 -5z"/>
<path d="M11689 12903 c-10 -12 -7 -13 22 -7 19 3 40 7 47 7 23 1 1 12 -28 13
-16 1 -35 -5 -41 -13z"/>
<path d="M11516 12864 c-21 -21 -20 -27 3 -14 14 7 20 7 23 -1 5 -14 48 -2 48
12 0 6 -4 7 -10 4 -5 -3 -10 -1 -10 4 0 17 -37 13 -54 -5z"/>
<path d="M12170 12790 c0 -5 5 -10 10 -10 6 0 10 5 10 10 0 6 -4 10 -10 10 -5
0 -10 -4 -10 -10z"/>
<path d="M9090 12590 c0 -5 5 -10 11 -10 5 0 7 5 4 10 -3 6 -8 10 -11 10 -2 0
-4 -4 -4 -10z"/>
<path d="M9810 12575 c7 -9 16 -12 19 -7 3 5 13 12 21 15 8 3 0 6 -19 6 -29 1
-32 -1 -21 -14z"/>
<path d="M9725 12571 c-6 -10 24 -45 32 -37 7 7 -7 46 -17 46 -5 0 -11 -4 -15
-9z"/>
<path d="M11059 11693 c-13 -15 -12 -15 9 -4 23 12 28 21 13 21 -5 0 -15 -7
-22 -17z"/>
<path d="M10980 11655 c0 -18 26 -20 36 -3 4 7 3 8 -4 4 -7 -4 -12 -2 -12 3 0
6 -4 11 -10 11 -5 0 -10 -7 -10 -15z"/>
<path d="M11955 10113 c-22 -2 -58 -5 -81 -8 l-40 -6 1 -59 c1 -33 -2 -65 -6
-71 -9 -15 28 -54 58 -63 23 -7 63 25 63 52 0 7 18 29 39 49 43 38 62 90 40
104 -8 5 -18 8 -24 7 -5 -1 -28 -3 -50 -5z"/>
<path d="M11578 9893 c-10 -2 -18 -9 -18 -14 0 -5 -6 -9 -14 -9 -7 0 -16 -9
-19 -20 -4 -17 -11 -19 -31 -14 -17 4 -26 2 -26 -6 0 -6 -4 -9 -9 -6 -5 3 -12
-1 -15 -10 -8 -21 17 -60 43 -69 12 -4 18 -12 14 -21 -6 -16 22 -20 32 -4 9
14 48 13 63 -2 9 -9 13 -5 18 20 4 18 14 34 25 37 15 5 18 12 12 33 -3 15 -11
31 -17 35 -7 6 -5 7 6 4 19 -7 29 11 17 33 -7 16 -48 22 -81 13z"/>
<path d="M11000 9295 c0 -8 14 -21 30 -30 33 -17 38 -10 14 23 -17 25 -44 29
-44 7z"/>
<path d="M12310 9147 c0 -8 8 -22 19 -31 17 -16 19 -16 24 3 5 21 -9 41 -30
41 -7 0 -13 -6 -13 -13z"/>
<path d="M12274 9059 c-16 -17 -16 -22 -4 -29 11 -7 18 -4 24 10 5 11 13 20
18 20 4 0 8 5 8 10 0 17 -26 11 -46 -11z"/>
<path d="M12271 8964 c0 -11 3 -14 6 -6 3 7 2 16 -1 19 -3 4 -6 -2 -5 -13z"/>
<path d="M9440 8270 c0 -5 5 -10 10 -10 6 0 10 5 10 10 0 6 -4 10 -10 10 -5 0
-10 -4 -10 -10z"/>
<path d="M9545 8260 c-3 -5 -1 -18 4 -27 9 -15 10 -14 9 10 -3 30 -4 32 -13
17z"/>
<path d="M7345 8131 c-3 -5 -1 -12 5 -16 5 -3 10 1 10 9 0 18 -6 21 -15 7z"/>
<path d="M7390 8097 c0 -7 9 -18 20 -25 22 -14 25 -9 10 19 -12 21 -30 26 -30
6z"/>
<path d="M7338 8093 c6 -2 18 -2 25 0 6 3 1 5 -13 5 -14 0 -19 -2 -12 -5z"/>
<path d="M9544 17169 c-16 -17 -16 -22 -4 -29 27 -17 40 -11 40 20 0 35 -10
38 -36 9z"/>
<path d="M9436 16741 c-4 -5 3 -7 14 -4 23 6 26 13 6 13 -8 0 -17 -4 -20 -9z"/>
<path d="M10180 16302 c0 -4 7 -18 16 -31 12 -16 19 -20 27 -12 7 7 5 17 -8
31 -18 20 -35 26 -35 12z"/>
<path d="M9785 16060 c3 -5 8 -10 11 -10 2 0 4 5 4 10 0 6 -5 10 -11 10 -5 0
-7 -4 -4 -10z"/>
<path d="M9787 16011 c3 -12 12 -21 20 -21 20 0 12 34 -9 38 -12 2 -15 -2 -11
-17z"/>
<path d="M9550 15744 c-42 -39 -48 -65 -23 -114 7 -14 13 -31 13 -37 0 -7 3
-12 8 -12 19 3 33 -2 28 -10 -12 -19 7 -41 34 -41 34 0 42 10 42 56 0 22 6 38
15 41 8 3 13 14 10 24 -6 24 10 34 28 19 8 -7 15 -11 16 -9 7 43 7 69 -1 64
-6 -3 -10 -1 -10 5 0 6 -10 8 -24 4 -17 -4 -31 2 -51 20 -15 14 -32 26 -36 26
-5 0 -27 -16 -49 -36z"/>
<path d="M9701 15627 c-26 -26 1 -37 34 -14 17 13 17 14 -3 19 -11 3 -25 1
-31 -5z"/>
<path d="M9581 15504 c0 -11 3 -14 6 -6 3 7 2 16 -1 19 -3 4 -6 -2 -5 -13z"/>
<path d="M14424 8977 c8 -12 12 -13 15 -5 2 7 9 16 14 20 6 3 -1 5 -15 5 -21
-2 -23 -5 -14 -20z"/>
<path d="M14395 8970 c3 -5 8 -10 11 -10 2 0 4 5 4 10 0 6 -5 10 -11 10 -5 0
-7 -4 -4 -10z"/>
<path d="M13106 7421 c-8 -13 37 -61 58 -61 13 0 15 -8 11 -42 -2 -24 -2 -34
1 -23 3 11 12 34 20 52 20 44 18 51 -18 61 -18 6 -40 13 -49 17 -10 3 -20 2
-23 -4z"/>
<path d="M13340 7371 c0 -6 -8 -7 -17 -4 -12 5 -11 1 5 -15 13 -13 19 -29 16
-39 -5 -17 -5 -17 6 0 12 18 50 24 50 7 0 -5 7 -10 15 -10 8 0 15 -4 15 -10 0
-5 5 -10 11 -10 13 0 39 25 39 38 0 13 -44 24 -64 16 -8 -3 -29 4 -46 16 -16
12 -30 17 -30 11z"/>
<path d="M13540 7313 c0 -7 -7 -13 -15 -13 -8 0 -15 -9 -15 -20 0 -16 7 -20
38 -20 37 0 99 -39 85 -54 -3 -3 3 -6 15 -6 12 0 22 -4 22 -8 0 -13 47 -32 80
-32 15 0 71 -20 124 -45 52 -25 99 -45 103 -44 4 1 16 -1 26 -6 22 -9 37 3 18
14 -16 10 -3 20 21 16 9 -2 22 3 29 11 6 8 17 14 24 14 6 0 11 10 10 23 -2 26
-55 51 -62 30 -8 -22 -43 -15 -43 8 0 18 -5 20 -50 18 -34 -2 -55 2 -67 14
-21 18 -102 56 -121 57 -8 0 -29 7 -48 16 -19 9 -49 14 -69 12 -19 -2 -35 0
-35 4 0 5 -12 5 -26 2 -17 -4 -29 -2 -35 7 -6 10 -9 11 -9 2z"/>
<path d="M13250 7285 c0 -9 -6 -15 -12 -14 -25 3 -35 -1 -35 -16 0 -8 4 -15 9
-15 5 0 7 -4 4 -9 -6 -9 23 -5 54 6 8 4 18 5 23 5 4 -1 7 7 7 18 0 11 7 20 15
20 8 0 15 5 15 10 0 6 -18 10 -40 10 -29 0 -40 -4 -40 -15z"/>
<path d="M13311 7232 c-15 -27 -14 -32 4 -32 20 0 31 28 17 42 -7 7 -14 4 -21
-10z"/>
<path d="M14305 7090 c-3 -5 1 -10 9 -10 9 0 16 5 16 10 0 6 -4 10 -9 10 -6 0
-13 -4 -16 -10z"/>
<path d="M14302 7029 c2 -7 10 -15 17 -17 8 -3 12 1 9 9 -2 7 -10 15 -17 17
-8 3 -12 -1 -9 -9z"/>
<path d="M13313 6005 c-7 -8 -13 -19 -13 -26 0 -6 -7 -9 -15 -5 -8 3 -19 -2
-24 -12 -7 -11 -11 -12 -11 -4 0 7 -4 11 -10 7 -12 -8 8 -52 28 -60 8 -3 29 3
46 13 25 15 31 25 29 51 -2 40 -14 54 -30 36z"/>
<path d="M13220 5990 c0 -5 4 -10 9 -10 6 0 13 5 16 10 3 6 -1 10 -9 10 -9 0
-16 -4 -16 -10z"/>
<path d="M16741 8891 c-8 -6 -11 -16 -7 -27 5 -12 10 -14 17 -7 16 16 7 45
-10 34z"/>
<path d="M15095 8020 c-3 -5 1 -10 10 -10 9 0 13 5 10 10 -3 6 -8 10 -10 10
-2 0 -7 -4 -10 -10z"/>
<path d="M15603 7748 c3 -9 2 -18 -2 -20 -4 -2 -6 -20 -3 -40 3 -31 7 -36 21
-29 9 5 22 6 29 4 17 -7 15 12 -4 28 -14 12 -14 14 2 26 10 7 13 13 6 13 -6 0
-18 -10 -27 -22 l-17 -23 4 27 c3 15 1 33 -4 40 -8 10 -9 9 -5 -4z"/>
<path d="M16497 7685 c3 -8 9 -12 14 -9 12 7 11 11 -5 17 -10 4 -13 1 -9 -8z"/>
<path d="M16430 7679 c0 -5 5 -7 10 -4 6 3 10 8 10 11 0 2 -4 4 -10 4 -5 0
-10 -5 -10 -11z"/>
<path d="M15783 7630 c1 -14 4 -16 14 -8 16 13 16 15 -1 21 -10 4 -14 0 -13
-13z"/>
<path d="M16011 7601 c-9 -6 -7 -10 8 -14 12 -3 21 -1 21 3 0 14 -15 19 -29
11z"/>
<path d="M16050 7581 c-8 -6 -17 -8 -21 -5 -4 2 -10 0 -14 -6 -4 -6 4 -9 19
-8 14 1 28 8 30 15 6 15 5 16 -14 4z"/>
<path d="M15924 7560 c0 -11 4 -16 11 -11 16 12 33 7 49 -14 14 -19 15 -19 16
-2 0 24 -32 57 -38 39 -2 -8 -9 -9 -21 -3 -13 7 -17 5 -17 -9z"/>
<path d="M15973 7503 c-7 -2 -13 -12 -13 -20 0 -10 -6 -13 -16 -9 -14 6 -15 4
-4 -9 11 -13 15 -13 21 -3 5 7 15 13 23 13 9 0 16 3 16 8 0 24 -1 27 -7 26 -5
0 -14 -3 -20 -6z"/>
<path d="M16150 7475 c0 -7 11 -12 25 -11 32 1 32 12 0 18 -16 3 -25 1 -25 -7z"/>
<path d="M16090 7470 c-8 -5 -11 -12 -7 -16 4 -4 15 0 24 9 18 18 8 23 -17 7z"/>
<path d="M11863 8183 c-16 -6 -17 -33 -3 -33 11 0 26 28 19 34 -2 2 -10 1 -16
-1z"/>
<path d="M11765 7461 c-3 -6 -4 -15 -1 -20 3 -5 -1 -11 -9 -15 -8 -3 -15 -10
-15 -16 0 -14 32 -12 54 5 17 13 17 14 -2 35 -13 14 -22 18 -27 11z"/>
<path d="M11630 7405 c0 -18 19 -40 26 -32 4 4 0 15 -9 24 -9 10 -17 13 -17 8z"/>
<path d="M13454 5549 c-3 -6 -1 -16 5 -22 8 -8 11 -5 11 11 0 24 -5 28 -16 11z"/>
</g>
</svg>
